G04 (created by PCBNEW (2011-nov-30)-testing) date lun 18 feb 2013 23:52:53 ART*
%MOIN*%
G04 Gerber Fmt 3.4, Leading zero omitted, Abs format*
%FSLAX34Y34*%
G01*
G70*
G90*
G04 APERTURE LIST*
%ADD10C,0.006*%
%ADD11C,0.0748*%
%ADD12C,0.0669*%
%ADD13C,0.07*%
%ADD14R,0.07X0.07*%
%ADD15R,0.0669X0.0669*%
%ADD16C,0.0787*%
%ADD17C,0.065*%
%ADD18R,0.0236X0.0512*%
%ADD19R,0.122X0.0472*%
%ADD20C,0.069*%
%ADD21R,0.055X0.055*%
%ADD22C,0.055*%
%ADD23R,0.0787X0.0787*%
%ADD24C,0.072*%
%ADD25R,0.06X0.06*%
%ADD26C,0.06*%
%ADD27C,0.2362*%
%ADD28C,0.05*%
%ADD29C,0.02*%
%ADD30C,0.015*%
G04 APERTURE END LIST*
G54D10*
G54D11*
X61100Y-40300D03*
X61100Y-36300D03*
X63100Y-36300D03*
X63100Y-40300D03*
X65000Y-36300D03*
X65000Y-40300D03*
G54D12*
X66800Y-42400D03*
X67800Y-42400D03*
G54D13*
X59400Y-40300D03*
G54D14*
X59400Y-36300D03*
G54D15*
X63800Y-43700D03*
G54D12*
X64800Y-43700D03*
G54D16*
X67613Y-38500D03*
X69187Y-38500D03*
G54D17*
X50200Y-31500D03*
X49200Y-31500D03*
G54D18*
X44300Y-29650D03*
X43800Y-29650D03*
X45800Y-29650D03*
X45300Y-29650D03*
X44800Y-29650D03*
G54D19*
X44800Y-27500D03*
G54D17*
X63200Y-30300D03*
X66200Y-30300D03*
X58200Y-30300D03*
X61200Y-30300D03*
X70900Y-27100D03*
X67900Y-27100D03*
X67900Y-28700D03*
X70900Y-28700D03*
X61200Y-27100D03*
X58200Y-27100D03*
X58200Y-28700D03*
X61200Y-28700D03*
X63200Y-28700D03*
X66200Y-28700D03*
X66200Y-27100D03*
X63200Y-27100D03*
G54D15*
X68900Y-34700D03*
G54D12*
X67900Y-34700D03*
G54D15*
X46500Y-43700D03*
G54D12*
X47500Y-43700D03*
G54D20*
X42290Y-24880D03*
X43290Y-24880D03*
G54D21*
X66200Y-32000D03*
G54D22*
X63200Y-32000D03*
G54D21*
X61200Y-32000D03*
G54D22*
X58200Y-32000D03*
G54D21*
X41900Y-29200D03*
G54D22*
X41900Y-28200D03*
G54D17*
X42720Y-32150D03*
X43720Y-32150D03*
X47400Y-29260D03*
X48400Y-29260D03*
X49110Y-25630D03*
X49110Y-24630D03*
X46540Y-31430D03*
X47540Y-31430D03*
X54400Y-28400D03*
X54400Y-29400D03*
G54D18*
X51100Y-29750D03*
X50600Y-29750D03*
X52600Y-29750D03*
X52100Y-29750D03*
X51600Y-29750D03*
G54D19*
X51600Y-27600D03*
G54D13*
X42900Y-36500D03*
G54D14*
X42900Y-40500D03*
G54D21*
X70900Y-32000D03*
G54D22*
X67900Y-32000D03*
G54D13*
X44600Y-36500D03*
G54D14*
X44600Y-40500D03*
G54D17*
X67900Y-30300D03*
X70900Y-30300D03*
G54D23*
X50130Y-39340D03*
G54D16*
X50630Y-37340D03*
X51130Y-39340D03*
X51630Y-37340D03*
X52130Y-39340D03*
X52630Y-37340D03*
X53130Y-39340D03*
X53630Y-37340D03*
X54130Y-39340D03*
X54630Y-37340D03*
X55130Y-39340D03*
X55630Y-37340D03*
X56130Y-39340D03*
X56630Y-37340D03*
X57130Y-39340D03*
G54D14*
X60400Y-25000D03*
G54D24*
X60400Y-24000D03*
X61400Y-25000D03*
X61400Y-24000D03*
X62400Y-25000D03*
X62400Y-24000D03*
G54D13*
X47900Y-40600D03*
G54D14*
X47900Y-36600D03*
G54D13*
X46200Y-40600D03*
G54D14*
X46200Y-36600D03*
G54D13*
X46430Y-24830D03*
X45430Y-24830D03*
G54D15*
X54500Y-41700D03*
G54D12*
X53500Y-41700D03*
X52500Y-41700D03*
G54D15*
X52400Y-34400D03*
G54D12*
X53400Y-34400D03*
X54400Y-34400D03*
G54D15*
X71600Y-37000D03*
G54D12*
X71600Y-38000D03*
G54D25*
X53000Y-25000D03*
G54D26*
X53000Y-24000D03*
X54000Y-25000D03*
X54000Y-24000D03*
X55000Y-25000D03*
X55000Y-24000D03*
X56000Y-25000D03*
X56000Y-24000D03*
X57000Y-25000D03*
X57000Y-24000D03*
G54D27*
X41500Y-43090D03*
X71110Y-43200D03*
G54D28*
X50200Y-31500D03*
X56000Y-25000D03*
X66800Y-42400D03*
X54130Y-39340D03*
X42290Y-24880D03*
X49110Y-25630D03*
X41900Y-29200D03*
X42720Y-32150D03*
X47400Y-29260D03*
X61200Y-32000D03*
X61200Y-30300D03*
X70900Y-30300D03*
X62400Y-24000D03*
X43720Y-32150D03*
X54400Y-29400D03*
X54000Y-24000D03*
X44600Y-36500D03*
X50130Y-39340D03*
X61200Y-28700D03*
X63200Y-32000D03*
X56000Y-24000D03*
X49200Y-31500D03*
X47540Y-31430D03*
X41900Y-28200D03*
X46540Y-31430D03*
X71600Y-37000D03*
X47900Y-40600D03*
X44600Y-40500D03*
X64800Y-43700D03*
X59400Y-36300D03*
G54D29*
X51100Y-29750D02*
X51100Y-30600D01*
X51100Y-30600D02*
X50200Y-31500D01*
X50050Y-26750D02*
X49350Y-26750D01*
X50160Y-26750D02*
X50050Y-26750D01*
X52650Y-26750D02*
X50160Y-26750D01*
X49350Y-26750D02*
X49110Y-26990D01*
X49110Y-25630D02*
X49110Y-26990D01*
X49110Y-26990D02*
X48750Y-27350D01*
X45830Y-26030D02*
X45830Y-26040D01*
X42290Y-25330D02*
X42990Y-26030D01*
X42990Y-26030D02*
X45830Y-26030D01*
X42290Y-24880D02*
X42290Y-25330D01*
X45830Y-26040D02*
X47090Y-27300D01*
X52650Y-26750D02*
X55050Y-26750D01*
X55050Y-26750D02*
X55400Y-27100D01*
X49110Y-25630D02*
X49110Y-25700D01*
X66800Y-42400D02*
X66300Y-41900D01*
X64800Y-34600D02*
X57400Y-34600D01*
X66300Y-36100D02*
X64800Y-34600D01*
X66300Y-41900D02*
X66300Y-36100D01*
X54130Y-39340D02*
X54200Y-39410D01*
X54200Y-39410D02*
X54200Y-40000D01*
X54200Y-40000D02*
X54900Y-40700D01*
X54900Y-40700D02*
X57600Y-40700D01*
X57600Y-40700D02*
X58400Y-39900D01*
X58400Y-39900D02*
X58400Y-35600D01*
X58400Y-35600D02*
X57400Y-34600D01*
X57400Y-34600D02*
X56100Y-33300D01*
X56100Y-27800D02*
X55400Y-27100D01*
X56100Y-33300D02*
X56100Y-27800D01*
X52600Y-29200D02*
X52600Y-29750D01*
X53000Y-27100D02*
X53000Y-28800D01*
X53000Y-28800D02*
X52600Y-29200D01*
X52650Y-26750D02*
X53000Y-27100D01*
X41900Y-29200D02*
X42500Y-29200D01*
X46700Y-27500D02*
X46900Y-27300D01*
X46900Y-27300D02*
X47090Y-27300D01*
X46520Y-27680D02*
X46700Y-27500D01*
X42500Y-29200D02*
X43300Y-28400D01*
X43300Y-28400D02*
X45800Y-28400D01*
X45800Y-28400D02*
X46430Y-27770D01*
X46430Y-27770D02*
X46520Y-27680D01*
X47090Y-27300D02*
X47100Y-27300D01*
X47100Y-27300D02*
X48700Y-27300D01*
X48700Y-27300D02*
X48750Y-27350D01*
X48750Y-27350D02*
X49100Y-27700D01*
X50600Y-29200D02*
X50600Y-29750D01*
X49100Y-27700D02*
X50600Y-29200D01*
X41900Y-29200D02*
X41900Y-30000D01*
X44300Y-30200D02*
X44300Y-29650D01*
X44100Y-30400D02*
X44300Y-30200D01*
X42300Y-30400D02*
X44100Y-30400D01*
X41900Y-30000D02*
X42300Y-30400D01*
X43800Y-29650D02*
X43800Y-29030D01*
X45900Y-28890D02*
X46270Y-29260D01*
X43940Y-28890D02*
X45900Y-28890D01*
X43800Y-29030D02*
X43940Y-28890D01*
X47400Y-29260D02*
X46270Y-29260D01*
X46270Y-29260D02*
X46190Y-29260D01*
X46190Y-29260D02*
X45800Y-29650D01*
X45800Y-29650D02*
X45800Y-29600D01*
X61200Y-32000D02*
X61200Y-30300D01*
X68800Y-25300D02*
X66700Y-25300D01*
X65400Y-24000D02*
X62400Y-24000D01*
X66700Y-25300D02*
X65400Y-24000D01*
X70900Y-30300D02*
X70100Y-30300D01*
X69800Y-26300D02*
X68800Y-25300D01*
X69800Y-30000D02*
X69800Y-26300D01*
X70100Y-30300D02*
X69800Y-30000D01*
X47540Y-31430D02*
X47540Y-32160D01*
X46970Y-32730D02*
X44600Y-32730D01*
X47540Y-32160D02*
X46970Y-32730D01*
X43720Y-32150D02*
X44020Y-32150D01*
X44020Y-32150D02*
X44600Y-32730D01*
X44800Y-30800D02*
X44800Y-30920D01*
X44800Y-30800D02*
X44800Y-29650D01*
X44800Y-30920D02*
X44420Y-31300D01*
X44420Y-31300D02*
X43720Y-32150D01*
X44600Y-32730D02*
X44600Y-36500D01*
X49720Y-32630D02*
X49570Y-32630D01*
X49720Y-32630D02*
X51010Y-32630D01*
X49200Y-31500D02*
X49200Y-32260D01*
X51605Y-32035D02*
X51010Y-32630D01*
X49570Y-32630D02*
X49200Y-32260D01*
X51605Y-32035D02*
X51605Y-32025D01*
X54400Y-30800D02*
X53900Y-31300D01*
X54400Y-30800D02*
X54400Y-29400D01*
X52330Y-31300D02*
X53900Y-31300D01*
X51605Y-32025D02*
X52330Y-31300D01*
X51605Y-30605D02*
X51605Y-31055D01*
X51605Y-31055D02*
X51605Y-32035D01*
X64700Y-29700D02*
X64700Y-29500D01*
X64700Y-29700D02*
X64700Y-31700D01*
X64700Y-31700D02*
X64400Y-32000D01*
X63200Y-32000D02*
X64400Y-32000D01*
X65500Y-28700D02*
X66200Y-28700D01*
X64700Y-29500D02*
X65500Y-28700D01*
X51605Y-30605D02*
X51600Y-30600D01*
X51600Y-29750D02*
X51600Y-30600D01*
X50130Y-39340D02*
X48590Y-37800D01*
X48590Y-37800D02*
X45200Y-37800D01*
X45200Y-37800D02*
X44600Y-37200D01*
X44600Y-37200D02*
X44600Y-36500D01*
X61200Y-28700D02*
X62200Y-29700D01*
X62600Y-32000D02*
X63200Y-32000D01*
X62200Y-31600D02*
X62600Y-32000D01*
X62200Y-29700D02*
X62200Y-31600D01*
X51600Y-27600D02*
X51600Y-29750D01*
X44800Y-27500D02*
X42600Y-27500D01*
X42600Y-27500D02*
X41900Y-28200D01*
X45300Y-29650D02*
X45300Y-30100D01*
X46000Y-30800D02*
X46540Y-31430D01*
X45300Y-30100D02*
X46000Y-30800D01*
X71600Y-37000D02*
X69300Y-34700D01*
X69300Y-34700D02*
X68900Y-34700D01*
X44600Y-40500D02*
X44700Y-40400D01*
X47900Y-40000D02*
X47900Y-40600D01*
X47300Y-39400D02*
X47900Y-40000D01*
X44900Y-39400D02*
X47300Y-39400D01*
X44700Y-39600D02*
X44900Y-39400D01*
X44700Y-40400D02*
X44700Y-39600D01*
X64800Y-43700D02*
X64800Y-42700D01*
X63700Y-41600D02*
X62900Y-41600D01*
X64800Y-42700D02*
X63700Y-41600D01*
X62900Y-41600D02*
X62100Y-40800D01*
X62100Y-38200D02*
X62700Y-37600D01*
X62100Y-40800D02*
X62100Y-38200D01*
X59400Y-36300D02*
X59460Y-36360D01*
X60100Y-37600D02*
X62700Y-37600D01*
X59800Y-37300D02*
X60100Y-37600D01*
X59460Y-36360D02*
X59800Y-37300D01*
X62700Y-37600D02*
X64500Y-37600D01*
X65055Y-37045D02*
X65055Y-36333D01*
X64500Y-37600D02*
X65055Y-37045D01*
X54400Y-28400D02*
X53800Y-28400D01*
X53000Y-30700D02*
X52400Y-30700D01*
X53500Y-30200D02*
X53000Y-30700D01*
X53500Y-28700D02*
X53500Y-30200D01*
X53800Y-28400D02*
X53500Y-28700D01*
X52100Y-30400D02*
X52400Y-30700D01*
X52100Y-29750D02*
X52100Y-30400D01*
G54D10*
G36*
X42934Y-28025D02*
X42929Y-28029D01*
X42585Y-28372D01*
X42599Y-28340D01*
X42599Y-28243D01*
X42817Y-28025D01*
X42934Y-28025D01*
X42934Y-28025D01*
G37*
G54D30*
X42934Y-28025D02*
X42929Y-28029D01*
X42585Y-28372D01*
X42599Y-28340D01*
X42599Y-28243D01*
X42817Y-28025D01*
X42934Y-28025D01*
G54D10*
G36*
X43275Y-29265D02*
X43257Y-29309D01*
X43257Y-29478D01*
X43257Y-29875D01*
X42517Y-29875D01*
X42446Y-29804D01*
X42532Y-29718D01*
X42701Y-29685D01*
X42871Y-29571D01*
X43275Y-29167D01*
X43275Y-29265D01*
X43275Y-29265D01*
G37*
G54D30*
X43275Y-29265D02*
X43257Y-29309D01*
X43257Y-29478D01*
X43257Y-29875D01*
X42517Y-29875D01*
X42446Y-29804D01*
X42532Y-29718D01*
X42701Y-29685D01*
X42871Y-29571D01*
X43275Y-29167D01*
X43275Y-29265D01*
G54D10*
G36*
X46842Y-32115D02*
X46753Y-32205D01*
X44817Y-32205D01*
X44563Y-31951D01*
X44810Y-31651D01*
X45171Y-31292D01*
X45171Y-31291D01*
X45285Y-31121D01*
X45324Y-30920D01*
X45325Y-30920D01*
X45325Y-30867D01*
X45613Y-31155D01*
X45791Y-31363D01*
X45791Y-31578D01*
X45904Y-31854D01*
X46115Y-32065D01*
X46390Y-32179D01*
X46688Y-32179D01*
X46842Y-32115D01*
X46842Y-32115D01*
G37*
G54D30*
X46842Y-32115D02*
X46753Y-32205D01*
X44817Y-32205D01*
X44563Y-31951D01*
X44810Y-31651D01*
X45171Y-31292D01*
X45171Y-31291D01*
X45285Y-31121D01*
X45324Y-30920D01*
X45325Y-30920D01*
X45325Y-30867D01*
X45613Y-31155D01*
X45791Y-31363D01*
X45791Y-31578D01*
X45904Y-31854D01*
X46115Y-32065D01*
X46390Y-32179D01*
X46688Y-32179D01*
X46842Y-32115D01*
G54D10*
G36*
X51075Y-28984D02*
X50971Y-28829D01*
X49492Y-27350D01*
X49567Y-27275D01*
X50050Y-27275D01*
X50160Y-27275D01*
X50566Y-27275D01*
X50565Y-27279D01*
X50565Y-27448D01*
X50565Y-27920D01*
X50629Y-28076D01*
X50749Y-28196D01*
X50905Y-28261D01*
X51074Y-28261D01*
X51075Y-28261D01*
X51075Y-28984D01*
X51075Y-28984D01*
G37*
G54D30*
X51075Y-28984D02*
X50971Y-28829D01*
X49492Y-27350D01*
X49567Y-27275D01*
X50050Y-27275D01*
X50160Y-27275D01*
X50566Y-27275D01*
X50565Y-27279D01*
X50565Y-27448D01*
X50565Y-27920D01*
X50629Y-28076D01*
X50749Y-28196D01*
X50905Y-28261D01*
X51074Y-28261D01*
X51075Y-28261D01*
X51075Y-28984D01*
G54D10*
G36*
X51080Y-31817D02*
X50792Y-32105D01*
X50655Y-32105D01*
X50835Y-31925D01*
X50949Y-31650D01*
X50949Y-31493D01*
X51080Y-31362D01*
X51080Y-31817D01*
X51080Y-31817D01*
G37*
G54D30*
X51080Y-31817D02*
X50792Y-32105D01*
X50655Y-32105D01*
X50835Y-31925D01*
X50949Y-31650D01*
X50949Y-31493D01*
X51080Y-31362D01*
X51080Y-31817D01*
G54D10*
G36*
X52475Y-28582D02*
X52229Y-28829D01*
X52125Y-28984D01*
X52125Y-28261D01*
X52294Y-28261D01*
X52450Y-28197D01*
X52475Y-28172D01*
X52475Y-28582D01*
X52475Y-28582D01*
G37*
G54D30*
X52475Y-28582D02*
X52229Y-28829D01*
X52125Y-28984D01*
X52125Y-28261D01*
X52294Y-28261D01*
X52450Y-28197D01*
X52475Y-28172D01*
X52475Y-28582D01*
G54D10*
G36*
X53875Y-30583D02*
X53683Y-30775D01*
X53667Y-30775D01*
X53871Y-30571D01*
X53875Y-30565D01*
X53875Y-30583D01*
X53875Y-30583D01*
G37*
G54D30*
X53875Y-30583D02*
X53683Y-30775D01*
X53667Y-30775D01*
X53871Y-30571D01*
X53875Y-30565D01*
X53875Y-30583D01*
G54D10*
G36*
X57475Y-40082D02*
X57383Y-40175D01*
X55117Y-40175D01*
X55100Y-40158D01*
X55292Y-40158D01*
X55593Y-40034D01*
X55630Y-39997D01*
X55666Y-40033D01*
X55967Y-40158D01*
X56292Y-40158D01*
X56593Y-40034D01*
X56630Y-39997D01*
X56666Y-40033D01*
X56967Y-40158D01*
X57292Y-40158D01*
X57475Y-40082D01*
X57475Y-40082D01*
G37*
G54D30*
X57475Y-40082D02*
X57383Y-40175D01*
X55117Y-40175D01*
X55100Y-40158D01*
X55292Y-40158D01*
X55593Y-40034D01*
X55630Y-39997D01*
X55666Y-40033D01*
X55967Y-40158D01*
X56292Y-40158D01*
X56593Y-40034D01*
X56630Y-39997D01*
X56666Y-40033D01*
X56967Y-40158D01*
X57292Y-40158D01*
X57475Y-40082D01*
G54D10*
G36*
X57875Y-39000D02*
X57824Y-38877D01*
X57594Y-38647D01*
X57448Y-38586D01*
X57448Y-37503D01*
X57448Y-37178D01*
X57324Y-36877D01*
X57094Y-36647D01*
X56793Y-36522D01*
X56468Y-36522D01*
X56167Y-36646D01*
X56130Y-36683D01*
X56094Y-36647D01*
X55793Y-36522D01*
X55468Y-36522D01*
X55167Y-36646D01*
X55158Y-36655D01*
X55158Y-34551D01*
X55158Y-34250D01*
X55043Y-33971D01*
X54830Y-33758D01*
X54551Y-33642D01*
X54250Y-33642D01*
X53971Y-33757D01*
X53900Y-33828D01*
X53830Y-33758D01*
X53551Y-33642D01*
X53250Y-33642D01*
X53009Y-33740D01*
X52975Y-33706D01*
X52819Y-33641D01*
X52650Y-33641D01*
X51982Y-33641D01*
X51826Y-33705D01*
X51706Y-33825D01*
X51641Y-33981D01*
X51641Y-34150D01*
X51641Y-34818D01*
X51705Y-34974D01*
X51825Y-35094D01*
X51981Y-35159D01*
X52150Y-35159D01*
X52818Y-35159D01*
X52974Y-35095D01*
X53010Y-35058D01*
X53249Y-35158D01*
X53550Y-35158D01*
X53829Y-35043D01*
X53900Y-34972D01*
X53970Y-35042D01*
X54249Y-35158D01*
X54550Y-35158D01*
X54829Y-35043D01*
X55042Y-34830D01*
X55158Y-34551D01*
X55158Y-36655D01*
X55130Y-36683D01*
X55094Y-36647D01*
X54793Y-36522D01*
X54468Y-36522D01*
X54167Y-36646D01*
X54130Y-36683D01*
X54094Y-36647D01*
X53793Y-36522D01*
X53468Y-36522D01*
X53167Y-36646D01*
X53130Y-36683D01*
X53094Y-36647D01*
X52793Y-36522D01*
X52468Y-36522D01*
X52167Y-36646D01*
X52130Y-36683D01*
X52094Y-36647D01*
X51793Y-36522D01*
X51468Y-36522D01*
X51167Y-36646D01*
X51130Y-36683D01*
X51094Y-36647D01*
X50793Y-36522D01*
X50468Y-36522D01*
X50167Y-36646D01*
X49937Y-36876D01*
X49812Y-37177D01*
X49812Y-37502D01*
X49936Y-37803D01*
X50166Y-38033D01*
X50467Y-38158D01*
X50792Y-38158D01*
X51093Y-38034D01*
X51130Y-37997D01*
X51166Y-38033D01*
X51467Y-38158D01*
X51792Y-38158D01*
X52093Y-38034D01*
X52130Y-37997D01*
X52166Y-38033D01*
X52467Y-38158D01*
X52792Y-38158D01*
X53093Y-38034D01*
X53130Y-37997D01*
X53166Y-38033D01*
X53467Y-38158D01*
X53792Y-38158D01*
X54093Y-38034D01*
X54130Y-37997D01*
X54166Y-38033D01*
X54467Y-38158D01*
X54792Y-38158D01*
X55093Y-38034D01*
X55130Y-37997D01*
X55166Y-38033D01*
X55467Y-38158D01*
X55792Y-38158D01*
X56093Y-38034D01*
X56130Y-37997D01*
X56166Y-38033D01*
X56467Y-38158D01*
X56792Y-38158D01*
X57093Y-38034D01*
X57323Y-37804D01*
X57448Y-37503D01*
X57448Y-38586D01*
X57293Y-38522D01*
X56968Y-38522D01*
X56667Y-38646D01*
X56630Y-38683D01*
X56594Y-38647D01*
X56293Y-38522D01*
X55968Y-38522D01*
X55667Y-38646D01*
X55630Y-38683D01*
X55594Y-38647D01*
X55293Y-38522D01*
X54968Y-38522D01*
X54667Y-38646D01*
X54630Y-38683D01*
X54594Y-38647D01*
X54293Y-38522D01*
X53968Y-38522D01*
X53667Y-38646D01*
X53630Y-38683D01*
X53594Y-38647D01*
X53293Y-38522D01*
X52968Y-38522D01*
X52667Y-38646D01*
X52630Y-38683D01*
X52594Y-38647D01*
X52293Y-38522D01*
X51968Y-38522D01*
X51667Y-38646D01*
X51630Y-38683D01*
X51594Y-38647D01*
X51293Y-38522D01*
X50968Y-38522D01*
X50777Y-38600D01*
X50764Y-38587D01*
X50608Y-38522D01*
X50439Y-38522D01*
X50054Y-38522D01*
X48961Y-37429D01*
X48791Y-37315D01*
X48590Y-37275D01*
X48526Y-37275D01*
X48610Y-37191D01*
X48675Y-37035D01*
X48675Y-36866D01*
X48675Y-36166D01*
X48611Y-36010D01*
X48491Y-35890D01*
X48335Y-35825D01*
X48166Y-35825D01*
X47466Y-35825D01*
X47310Y-35889D01*
X47190Y-36009D01*
X47125Y-36165D01*
X47125Y-36334D01*
X47125Y-37034D01*
X47189Y-37190D01*
X47274Y-37275D01*
X46826Y-37275D01*
X46910Y-37191D01*
X46975Y-37035D01*
X46975Y-36866D01*
X46975Y-36166D01*
X46911Y-36010D01*
X46791Y-35890D01*
X46635Y-35825D01*
X46466Y-35825D01*
X45766Y-35825D01*
X45610Y-35889D01*
X45490Y-36009D01*
X45425Y-36165D01*
X45425Y-36334D01*
X45425Y-37034D01*
X45489Y-37190D01*
X45574Y-37275D01*
X45417Y-37275D01*
X45168Y-37026D01*
X45256Y-36939D01*
X45375Y-36655D01*
X45375Y-36347D01*
X45257Y-36062D01*
X45125Y-35930D01*
X45125Y-33255D01*
X46970Y-33255D01*
X47171Y-33215D01*
X47341Y-33101D01*
X47911Y-32531D01*
X48025Y-32361D01*
X48065Y-32160D01*
X48065Y-31965D01*
X48175Y-31855D01*
X48289Y-31580D01*
X48289Y-31282D01*
X48176Y-31006D01*
X47965Y-30795D01*
X47690Y-30681D01*
X47392Y-30681D01*
X47116Y-30794D01*
X47040Y-30870D01*
X46965Y-30795D01*
X46690Y-30681D01*
X46589Y-30681D01*
X46399Y-30458D01*
X46382Y-30444D01*
X46371Y-30428D01*
X46183Y-30241D01*
X46278Y-30147D01*
X46343Y-29991D01*
X46343Y-29849D01*
X46407Y-29785D01*
X46865Y-29785D01*
X46975Y-29895D01*
X47250Y-30009D01*
X47548Y-30009D01*
X47824Y-29896D01*
X47900Y-29820D01*
X47975Y-29895D01*
X48250Y-30009D01*
X48548Y-30009D01*
X48824Y-29896D01*
X49035Y-29685D01*
X49149Y-29410D01*
X49149Y-29112D01*
X49036Y-28836D01*
X48825Y-28625D01*
X48550Y-28511D01*
X48252Y-28511D01*
X47976Y-28624D01*
X47900Y-28700D01*
X47825Y-28625D01*
X47550Y-28511D01*
X47252Y-28511D01*
X46976Y-28624D01*
X46865Y-28735D01*
X46487Y-28735D01*
X46347Y-28595D01*
X46801Y-28142D01*
X46801Y-28141D01*
X46802Y-28139D01*
X46891Y-28051D01*
X47071Y-27872D01*
X47071Y-27871D01*
X47072Y-27869D01*
X47117Y-27825D01*
X48482Y-27825D01*
X48728Y-28071D01*
X48729Y-28071D01*
X48730Y-28072D01*
X50059Y-29401D01*
X50057Y-29409D01*
X50057Y-29578D01*
X50057Y-30090D01*
X50121Y-30246D01*
X50241Y-30366D01*
X50397Y-30431D01*
X50526Y-30431D01*
X50206Y-30751D01*
X50052Y-30751D01*
X49776Y-30864D01*
X49700Y-30940D01*
X49625Y-30865D01*
X49350Y-30751D01*
X49052Y-30751D01*
X48776Y-30864D01*
X48565Y-31075D01*
X48451Y-31350D01*
X48451Y-31648D01*
X48564Y-31924D01*
X48675Y-32035D01*
X48675Y-32260D01*
X48715Y-32461D01*
X48829Y-32631D01*
X49199Y-33001D01*
X49369Y-33115D01*
X49570Y-33155D01*
X49720Y-33155D01*
X51010Y-33155D01*
X51211Y-33115D01*
X51381Y-33001D01*
X51976Y-32407D01*
X51976Y-32406D01*
X51996Y-32375D01*
X51998Y-32374D01*
X52547Y-31825D01*
X53900Y-31825D01*
X54101Y-31785D01*
X54271Y-31671D01*
X54771Y-31171D01*
X54885Y-31001D01*
X54925Y-30800D01*
X54925Y-29935D01*
X55035Y-29825D01*
X55149Y-29550D01*
X55149Y-29252D01*
X55036Y-28976D01*
X54960Y-28900D01*
X55035Y-28825D01*
X55149Y-28550D01*
X55149Y-28252D01*
X55036Y-27976D01*
X54825Y-27765D01*
X54550Y-27651D01*
X54252Y-27651D01*
X53976Y-27764D01*
X53865Y-27875D01*
X53800Y-27875D01*
X53599Y-27915D01*
X53525Y-27964D01*
X53525Y-27275D01*
X54832Y-27275D01*
X55028Y-27471D01*
X55029Y-27471D01*
X55030Y-27472D01*
X55575Y-28017D01*
X55575Y-33300D01*
X55615Y-33501D01*
X55729Y-33671D01*
X57028Y-34971D01*
X57029Y-34971D01*
X57031Y-34973D01*
X57875Y-35817D01*
X57875Y-39000D01*
X57875Y-39000D01*
G37*
G54D30*
X57875Y-39000D02*
X57824Y-38877D01*
X57594Y-38647D01*
X57448Y-38586D01*
X57448Y-37503D01*
X57448Y-37178D01*
X57324Y-36877D01*
X57094Y-36647D01*
X56793Y-36522D01*
X56468Y-36522D01*
X56167Y-36646D01*
X56130Y-36683D01*
X56094Y-36647D01*
X55793Y-36522D01*
X55468Y-36522D01*
X55167Y-36646D01*
X55158Y-36655D01*
X55158Y-34551D01*
X55158Y-34250D01*
X55043Y-33971D01*
X54830Y-33758D01*
X54551Y-33642D01*
X54250Y-33642D01*
X53971Y-33757D01*
X53900Y-33828D01*
X53830Y-33758D01*
X53551Y-33642D01*
X53250Y-33642D01*
X53009Y-33740D01*
X52975Y-33706D01*
X52819Y-33641D01*
X52650Y-33641D01*
X51982Y-33641D01*
X51826Y-33705D01*
X51706Y-33825D01*
X51641Y-33981D01*
X51641Y-34150D01*
X51641Y-34818D01*
X51705Y-34974D01*
X51825Y-35094D01*
X51981Y-35159D01*
X52150Y-35159D01*
X52818Y-35159D01*
X52974Y-35095D01*
X53010Y-35058D01*
X53249Y-35158D01*
X53550Y-35158D01*
X53829Y-35043D01*
X53900Y-34972D01*
X53970Y-35042D01*
X54249Y-35158D01*
X54550Y-35158D01*
X54829Y-35043D01*
X55042Y-34830D01*
X55158Y-34551D01*
X55158Y-36655D01*
X55130Y-36683D01*
X55094Y-36647D01*
X54793Y-36522D01*
X54468Y-36522D01*
X54167Y-36646D01*
X54130Y-36683D01*
X54094Y-36647D01*
X53793Y-36522D01*
X53468Y-36522D01*
X53167Y-36646D01*
X53130Y-36683D01*
X53094Y-36647D01*
X52793Y-36522D01*
X52468Y-36522D01*
X52167Y-36646D01*
X52130Y-36683D01*
X52094Y-36647D01*
X51793Y-36522D01*
X51468Y-36522D01*
X51167Y-36646D01*
X51130Y-36683D01*
X51094Y-36647D01*
X50793Y-36522D01*
X50468Y-36522D01*
X50167Y-36646D01*
X49937Y-36876D01*
X49812Y-37177D01*
X49812Y-37502D01*
X49936Y-37803D01*
X50166Y-38033D01*
X50467Y-38158D01*
X50792Y-38158D01*
X51093Y-38034D01*
X51130Y-37997D01*
X51166Y-38033D01*
X51467Y-38158D01*
X51792Y-38158D01*
X52093Y-38034D01*
X52130Y-37997D01*
X52166Y-38033D01*
X52467Y-38158D01*
X52792Y-38158D01*
X53093Y-38034D01*
X53130Y-37997D01*
X53166Y-38033D01*
X53467Y-38158D01*
X53792Y-38158D01*
X54093Y-38034D01*
X54130Y-37997D01*
X54166Y-38033D01*
X54467Y-38158D01*
X54792Y-38158D01*
X55093Y-38034D01*
X55130Y-37997D01*
X55166Y-38033D01*
X55467Y-38158D01*
X55792Y-38158D01*
X56093Y-38034D01*
X56130Y-37997D01*
X56166Y-38033D01*
X56467Y-38158D01*
X56792Y-38158D01*
X57093Y-38034D01*
X57323Y-37804D01*
X57448Y-37503D01*
X57448Y-38586D01*
X57293Y-38522D01*
X56968Y-38522D01*
X56667Y-38646D01*
X56630Y-38683D01*
X56594Y-38647D01*
X56293Y-38522D01*
X55968Y-38522D01*
X55667Y-38646D01*
X55630Y-38683D01*
X55594Y-38647D01*
X55293Y-38522D01*
X54968Y-38522D01*
X54667Y-38646D01*
X54630Y-38683D01*
X54594Y-38647D01*
X54293Y-38522D01*
X53968Y-38522D01*
X53667Y-38646D01*
X53630Y-38683D01*
X53594Y-38647D01*
X53293Y-38522D01*
X52968Y-38522D01*
X52667Y-38646D01*
X52630Y-38683D01*
X52594Y-38647D01*
X52293Y-38522D01*
X51968Y-38522D01*
X51667Y-38646D01*
X51630Y-38683D01*
X51594Y-38647D01*
X51293Y-38522D01*
X50968Y-38522D01*
X50777Y-38600D01*
X50764Y-38587D01*
X50608Y-38522D01*
X50439Y-38522D01*
X50054Y-38522D01*
X48961Y-37429D01*
X48791Y-37315D01*
X48590Y-37275D01*
X48526Y-37275D01*
X48610Y-37191D01*
X48675Y-37035D01*
X48675Y-36866D01*
X48675Y-36166D01*
X48611Y-36010D01*
X48491Y-35890D01*
X48335Y-35825D01*
X48166Y-35825D01*
X47466Y-35825D01*
X47310Y-35889D01*
X47190Y-36009D01*
X47125Y-36165D01*
X47125Y-36334D01*
X47125Y-37034D01*
X47189Y-37190D01*
X47274Y-37275D01*
X46826Y-37275D01*
X46910Y-37191D01*
X46975Y-37035D01*
X46975Y-36866D01*
X46975Y-36166D01*
X46911Y-36010D01*
X46791Y-35890D01*
X46635Y-35825D01*
X46466Y-35825D01*
X45766Y-35825D01*
X45610Y-35889D01*
X45490Y-36009D01*
X45425Y-36165D01*
X45425Y-36334D01*
X45425Y-37034D01*
X45489Y-37190D01*
X45574Y-37275D01*
X45417Y-37275D01*
X45168Y-37026D01*
X45256Y-36939D01*
X45375Y-36655D01*
X45375Y-36347D01*
X45257Y-36062D01*
X45125Y-35930D01*
X45125Y-33255D01*
X46970Y-33255D01*
X47171Y-33215D01*
X47341Y-33101D01*
X47911Y-32531D01*
X48025Y-32361D01*
X48065Y-32160D01*
X48065Y-31965D01*
X48175Y-31855D01*
X48289Y-31580D01*
X48289Y-31282D01*
X48176Y-31006D01*
X47965Y-30795D01*
X47690Y-30681D01*
X47392Y-30681D01*
X47116Y-30794D01*
X47040Y-30870D01*
X46965Y-30795D01*
X46690Y-30681D01*
X46589Y-30681D01*
X46399Y-30458D01*
X46382Y-30444D01*
X46371Y-30428D01*
X46183Y-30241D01*
X46278Y-30147D01*
X46343Y-29991D01*
X46343Y-29849D01*
X46407Y-29785D01*
X46865Y-29785D01*
X46975Y-29895D01*
X47250Y-30009D01*
X47548Y-30009D01*
X47824Y-29896D01*
X47900Y-29820D01*
X47975Y-29895D01*
X48250Y-30009D01*
X48548Y-30009D01*
X48824Y-29896D01*
X49035Y-29685D01*
X49149Y-29410D01*
X49149Y-29112D01*
X49036Y-28836D01*
X48825Y-28625D01*
X48550Y-28511D01*
X48252Y-28511D01*
X47976Y-28624D01*
X47900Y-28700D01*
X47825Y-28625D01*
X47550Y-28511D01*
X47252Y-28511D01*
X46976Y-28624D01*
X46865Y-28735D01*
X46487Y-28735D01*
X46347Y-28595D01*
X46801Y-28142D01*
X46801Y-28141D01*
X46802Y-28139D01*
X46891Y-28051D01*
X47071Y-27872D01*
X47071Y-27871D01*
X47072Y-27869D01*
X47117Y-27825D01*
X48482Y-27825D01*
X48728Y-28071D01*
X48729Y-28071D01*
X48730Y-28072D01*
X50059Y-29401D01*
X50057Y-29409D01*
X50057Y-29578D01*
X50057Y-30090D01*
X50121Y-30246D01*
X50241Y-30366D01*
X50397Y-30431D01*
X50526Y-30431D01*
X50206Y-30751D01*
X50052Y-30751D01*
X49776Y-30864D01*
X49700Y-30940D01*
X49625Y-30865D01*
X49350Y-30751D01*
X49052Y-30751D01*
X48776Y-30864D01*
X48565Y-31075D01*
X48451Y-31350D01*
X48451Y-31648D01*
X48564Y-31924D01*
X48675Y-32035D01*
X48675Y-32260D01*
X48715Y-32461D01*
X48829Y-32631D01*
X49199Y-33001D01*
X49369Y-33115D01*
X49570Y-33155D01*
X49720Y-33155D01*
X51010Y-33155D01*
X51211Y-33115D01*
X51381Y-33001D01*
X51976Y-32407D01*
X51976Y-32406D01*
X51996Y-32375D01*
X51998Y-32374D01*
X52547Y-31825D01*
X53900Y-31825D01*
X54101Y-31785D01*
X54271Y-31671D01*
X54771Y-31171D01*
X54885Y-31001D01*
X54925Y-30800D01*
X54925Y-29935D01*
X55035Y-29825D01*
X55149Y-29550D01*
X55149Y-29252D01*
X55036Y-28976D01*
X54960Y-28900D01*
X55035Y-28825D01*
X55149Y-28550D01*
X55149Y-28252D01*
X55036Y-27976D01*
X54825Y-27765D01*
X54550Y-27651D01*
X54252Y-27651D01*
X53976Y-27764D01*
X53865Y-27875D01*
X53800Y-27875D01*
X53599Y-27915D01*
X53525Y-27964D01*
X53525Y-27275D01*
X54832Y-27275D01*
X55028Y-27471D01*
X55029Y-27471D01*
X55030Y-27472D01*
X55575Y-28017D01*
X55575Y-33300D01*
X55615Y-33501D01*
X55729Y-33671D01*
X57028Y-34971D01*
X57029Y-34971D01*
X57031Y-34973D01*
X57875Y-35817D01*
X57875Y-39000D01*
G54D10*
G36*
X57875Y-39683D02*
X57872Y-39685D01*
X57875Y-39678D01*
X57875Y-39683D01*
X57875Y-39683D01*
G37*
G54D30*
X57875Y-39683D02*
X57872Y-39685D01*
X57875Y-39678D01*
X57875Y-39683D01*
G54D10*
G36*
X64960Y-35502D02*
X64842Y-35502D01*
X64548Y-35623D01*
X64324Y-35847D01*
X64202Y-36140D01*
X64202Y-36458D01*
X64323Y-36752D01*
X64464Y-36893D01*
X64282Y-37075D01*
X63313Y-37075D01*
X63552Y-36977D01*
X63776Y-36753D01*
X63898Y-36460D01*
X63898Y-36142D01*
X63777Y-35848D01*
X63553Y-35624D01*
X63260Y-35502D01*
X62942Y-35502D01*
X62648Y-35623D01*
X62424Y-35847D01*
X62302Y-36140D01*
X62302Y-36458D01*
X62423Y-36752D01*
X62647Y-36976D01*
X62884Y-37075D01*
X62700Y-37075D01*
X61313Y-37075D01*
X61552Y-36977D01*
X61776Y-36753D01*
X61898Y-36460D01*
X61898Y-36142D01*
X61777Y-35848D01*
X61553Y-35624D01*
X61260Y-35502D01*
X60942Y-35502D01*
X60648Y-35623D01*
X60424Y-35847D01*
X60302Y-36140D01*
X60302Y-36458D01*
X60423Y-36752D01*
X60647Y-36976D01*
X60884Y-37075D01*
X60317Y-37075D01*
X60254Y-37012D01*
X60163Y-36761D01*
X60175Y-36735D01*
X60175Y-36566D01*
X60175Y-35866D01*
X60111Y-35710D01*
X59991Y-35590D01*
X59835Y-35525D01*
X59666Y-35525D01*
X58966Y-35525D01*
X58914Y-35546D01*
X58885Y-35399D01*
X58771Y-35229D01*
X58667Y-35125D01*
X64583Y-35125D01*
X64960Y-35502D01*
X64960Y-35502D01*
G37*
G54D30*
X64960Y-35502D02*
X64842Y-35502D01*
X64548Y-35623D01*
X64324Y-35847D01*
X64202Y-36140D01*
X64202Y-36458D01*
X64323Y-36752D01*
X64464Y-36893D01*
X64282Y-37075D01*
X63313Y-37075D01*
X63552Y-36977D01*
X63776Y-36753D01*
X63898Y-36460D01*
X63898Y-36142D01*
X63777Y-35848D01*
X63553Y-35624D01*
X63260Y-35502D01*
X62942Y-35502D01*
X62648Y-35623D01*
X62424Y-35847D01*
X62302Y-36140D01*
X62302Y-36458D01*
X62423Y-36752D01*
X62647Y-36976D01*
X62884Y-37075D01*
X62700Y-37075D01*
X61313Y-37075D01*
X61552Y-36977D01*
X61776Y-36753D01*
X61898Y-36460D01*
X61898Y-36142D01*
X61777Y-35848D01*
X61553Y-35624D01*
X61260Y-35502D01*
X60942Y-35502D01*
X60648Y-35623D01*
X60424Y-35847D01*
X60302Y-36140D01*
X60302Y-36458D01*
X60423Y-36752D01*
X60647Y-36976D01*
X60884Y-37075D01*
X60317Y-37075D01*
X60254Y-37012D01*
X60163Y-36761D01*
X60175Y-36735D01*
X60175Y-36566D01*
X60175Y-35866D01*
X60111Y-35710D01*
X59991Y-35590D01*
X59835Y-35525D01*
X59666Y-35525D01*
X58966Y-35525D01*
X58914Y-35546D01*
X58885Y-35399D01*
X58771Y-35229D01*
X58667Y-35125D01*
X64583Y-35125D01*
X64960Y-35502D01*
G54D10*
G36*
X73400Y-45500D02*
X72716Y-45500D01*
X72716Y-42882D01*
X72472Y-42292D01*
X72359Y-42178D01*
X72359Y-37419D01*
X72359Y-37250D01*
X72359Y-36582D01*
X72295Y-36426D01*
X72175Y-36306D01*
X72019Y-36241D01*
X71850Y-36241D01*
X71649Y-36241D01*
X71649Y-30450D01*
X71649Y-30152D01*
X71536Y-29876D01*
X71325Y-29665D01*
X71050Y-29551D01*
X70752Y-29551D01*
X70476Y-29664D01*
X70365Y-29775D01*
X70325Y-29775D01*
X70325Y-29185D01*
X70475Y-29335D01*
X70750Y-29449D01*
X71048Y-29449D01*
X71324Y-29336D01*
X71535Y-29125D01*
X71649Y-28850D01*
X71649Y-28552D01*
X71536Y-28276D01*
X71325Y-28065D01*
X71050Y-27951D01*
X70752Y-27951D01*
X70476Y-28064D01*
X70325Y-28215D01*
X70325Y-27585D01*
X70475Y-27735D01*
X70750Y-27849D01*
X71048Y-27849D01*
X71324Y-27736D01*
X71535Y-27525D01*
X71649Y-27250D01*
X71649Y-26952D01*
X71536Y-26676D01*
X71325Y-26465D01*
X71050Y-26351D01*
X70752Y-26351D01*
X70476Y-26464D01*
X70325Y-26615D01*
X70325Y-26300D01*
X70285Y-26099D01*
X70171Y-25929D01*
X69171Y-24929D01*
X69001Y-24815D01*
X68800Y-24775D01*
X66917Y-24775D01*
X65771Y-23629D01*
X65601Y-23515D01*
X65400Y-23475D01*
X62985Y-23475D01*
X62845Y-23335D01*
X62557Y-23216D01*
X62245Y-23215D01*
X61956Y-23334D01*
X61900Y-23390D01*
X61845Y-23335D01*
X61557Y-23216D01*
X61245Y-23215D01*
X60956Y-23334D01*
X60900Y-23390D01*
X60845Y-23335D01*
X60557Y-23216D01*
X60245Y-23215D01*
X59956Y-23334D01*
X59735Y-23555D01*
X59616Y-23843D01*
X59615Y-24155D01*
X59710Y-24388D01*
X59690Y-24409D01*
X59625Y-24565D01*
X59625Y-24734D01*
X59625Y-25434D01*
X59689Y-25590D01*
X59809Y-25710D01*
X59965Y-25775D01*
X60134Y-25775D01*
X60834Y-25775D01*
X60990Y-25711D01*
X61012Y-25688D01*
X61243Y-25784D01*
X61555Y-25785D01*
X61844Y-25666D01*
X61900Y-25610D01*
X61955Y-25665D01*
X62243Y-25784D01*
X62555Y-25785D01*
X62844Y-25666D01*
X63065Y-25445D01*
X63184Y-25157D01*
X63185Y-24845D01*
X63066Y-24556D01*
X63035Y-24525D01*
X65182Y-24525D01*
X66328Y-25671D01*
X66329Y-25671D01*
X66499Y-25785D01*
X66700Y-25825D01*
X68583Y-25825D01*
X69275Y-26517D01*
X69275Y-30000D01*
X69315Y-30201D01*
X69429Y-30371D01*
X69729Y-30671D01*
X69899Y-30785D01*
X70100Y-30825D01*
X70365Y-30825D01*
X70475Y-30935D01*
X70750Y-31049D01*
X71048Y-31049D01*
X71324Y-30936D01*
X71535Y-30725D01*
X71649Y-30450D01*
X71649Y-36241D01*
X71600Y-36241D01*
X71600Y-32360D01*
X71600Y-32191D01*
X71600Y-31641D01*
X71536Y-31485D01*
X71416Y-31365D01*
X71260Y-31300D01*
X71091Y-31300D01*
X70541Y-31300D01*
X70385Y-31364D01*
X70265Y-31484D01*
X70200Y-31640D01*
X70200Y-31809D01*
X70200Y-32359D01*
X70264Y-32515D01*
X70384Y-32635D01*
X70540Y-32700D01*
X70709Y-32700D01*
X71259Y-32700D01*
X71415Y-32636D01*
X71535Y-32516D01*
X71600Y-32360D01*
X71600Y-36241D01*
X71583Y-36241D01*
X69671Y-34329D01*
X69659Y-34320D01*
X69659Y-34282D01*
X69595Y-34126D01*
X69475Y-34006D01*
X69319Y-33941D01*
X69150Y-33941D01*
X68649Y-33941D01*
X68649Y-30450D01*
X68649Y-30152D01*
X68649Y-28850D01*
X68649Y-28552D01*
X68649Y-27250D01*
X68649Y-26952D01*
X68536Y-26676D01*
X68325Y-26465D01*
X68050Y-26351D01*
X67752Y-26351D01*
X67476Y-26464D01*
X67265Y-26675D01*
X67151Y-26950D01*
X67151Y-27248D01*
X67264Y-27524D01*
X67475Y-27735D01*
X67750Y-27849D01*
X68048Y-27849D01*
X68324Y-27736D01*
X68535Y-27525D01*
X68649Y-27250D01*
X68649Y-28552D01*
X68536Y-28276D01*
X68325Y-28065D01*
X68050Y-27951D01*
X67752Y-27951D01*
X67476Y-28064D01*
X67265Y-28275D01*
X67151Y-28550D01*
X67151Y-28848D01*
X67264Y-29124D01*
X67475Y-29335D01*
X67750Y-29449D01*
X68048Y-29449D01*
X68324Y-29336D01*
X68535Y-29125D01*
X68649Y-28850D01*
X68649Y-30152D01*
X68536Y-29876D01*
X68325Y-29665D01*
X68050Y-29551D01*
X67752Y-29551D01*
X67476Y-29664D01*
X67265Y-29875D01*
X67151Y-30150D01*
X67151Y-30448D01*
X67264Y-30724D01*
X67475Y-30935D01*
X67750Y-31049D01*
X68048Y-31049D01*
X68324Y-30936D01*
X68535Y-30725D01*
X68649Y-30450D01*
X68649Y-33941D01*
X68599Y-33941D01*
X68599Y-32140D01*
X68599Y-31862D01*
X68493Y-31604D01*
X68297Y-31408D01*
X68040Y-31301D01*
X67762Y-31301D01*
X67504Y-31407D01*
X67308Y-31603D01*
X67201Y-31860D01*
X67201Y-32138D01*
X67307Y-32396D01*
X67503Y-32592D01*
X67760Y-32699D01*
X68038Y-32699D01*
X68296Y-32593D01*
X68492Y-32397D01*
X68599Y-32140D01*
X68599Y-33941D01*
X68482Y-33941D01*
X68326Y-34005D01*
X68289Y-34041D01*
X68051Y-33942D01*
X67750Y-33942D01*
X67471Y-34057D01*
X67258Y-34270D01*
X67142Y-34549D01*
X67142Y-34850D01*
X67257Y-35129D01*
X67470Y-35342D01*
X67749Y-35458D01*
X68050Y-35458D01*
X68290Y-35359D01*
X68325Y-35394D01*
X68481Y-35459D01*
X68650Y-35459D01*
X69316Y-35459D01*
X70841Y-36983D01*
X70841Y-37418D01*
X70905Y-37574D01*
X70941Y-37610D01*
X70842Y-37849D01*
X70842Y-38150D01*
X70957Y-38429D01*
X71170Y-38642D01*
X71449Y-38758D01*
X71750Y-38758D01*
X72029Y-38643D01*
X72242Y-38430D01*
X72358Y-38151D01*
X72358Y-37850D01*
X72259Y-37609D01*
X72294Y-37575D01*
X72359Y-37419D01*
X72359Y-42178D01*
X72021Y-41840D01*
X71431Y-41595D01*
X70792Y-41594D01*
X70202Y-41838D01*
X70005Y-42034D01*
X70005Y-38663D01*
X70005Y-38338D01*
X69881Y-38037D01*
X69651Y-37807D01*
X69350Y-37682D01*
X69025Y-37682D01*
X68724Y-37806D01*
X68494Y-38036D01*
X68399Y-38262D01*
X68307Y-38037D01*
X68077Y-37807D01*
X67776Y-37682D01*
X67451Y-37682D01*
X67150Y-37806D01*
X66949Y-38007D01*
X66949Y-30450D01*
X66949Y-30152D01*
X66949Y-28850D01*
X66949Y-28552D01*
X66949Y-27250D01*
X66949Y-26952D01*
X66836Y-26676D01*
X66625Y-26465D01*
X66350Y-26351D01*
X66052Y-26351D01*
X65776Y-26464D01*
X65565Y-26675D01*
X65451Y-26950D01*
X65451Y-27248D01*
X65564Y-27524D01*
X65775Y-27735D01*
X66050Y-27849D01*
X66348Y-27849D01*
X66624Y-27736D01*
X66835Y-27525D01*
X66949Y-27250D01*
X66949Y-28552D01*
X66836Y-28276D01*
X66625Y-28065D01*
X66350Y-27951D01*
X66052Y-27951D01*
X65776Y-28064D01*
X65665Y-28175D01*
X65500Y-28175D01*
X65299Y-28215D01*
X65129Y-28329D01*
X64329Y-29129D01*
X64215Y-29299D01*
X64175Y-29500D01*
X64175Y-29700D01*
X64175Y-31475D01*
X63664Y-31475D01*
X63597Y-31408D01*
X63340Y-31301D01*
X63062Y-31301D01*
X62804Y-31407D01*
X62776Y-31434D01*
X62725Y-31382D01*
X62725Y-30885D01*
X62775Y-30935D01*
X63050Y-31049D01*
X63348Y-31049D01*
X63624Y-30936D01*
X63835Y-30725D01*
X63949Y-30450D01*
X63949Y-30152D01*
X63949Y-28850D01*
X63949Y-28552D01*
X63949Y-27250D01*
X63949Y-26952D01*
X63836Y-26676D01*
X63625Y-26465D01*
X63350Y-26351D01*
X63052Y-26351D01*
X62776Y-26464D01*
X62565Y-26675D01*
X62451Y-26950D01*
X62451Y-27248D01*
X62564Y-27524D01*
X62775Y-27735D01*
X63050Y-27849D01*
X63348Y-27849D01*
X63624Y-27736D01*
X63835Y-27525D01*
X63949Y-27250D01*
X63949Y-28552D01*
X63836Y-28276D01*
X63625Y-28065D01*
X63350Y-27951D01*
X63052Y-27951D01*
X62776Y-28064D01*
X62565Y-28275D01*
X62451Y-28550D01*
X62451Y-28848D01*
X62564Y-29124D01*
X62775Y-29335D01*
X63050Y-29449D01*
X63348Y-29449D01*
X63624Y-29336D01*
X63835Y-29125D01*
X63949Y-28850D01*
X63949Y-30152D01*
X63836Y-29876D01*
X63625Y-29665D01*
X63350Y-29551D01*
X63052Y-29551D01*
X62776Y-29664D01*
X62725Y-29715D01*
X62725Y-29700D01*
X62685Y-29499D01*
X62571Y-29329D01*
X61949Y-28707D01*
X61949Y-28552D01*
X61949Y-27250D01*
X61949Y-26952D01*
X61836Y-26676D01*
X61625Y-26465D01*
X61350Y-26351D01*
X61052Y-26351D01*
X60776Y-26464D01*
X60565Y-26675D01*
X60451Y-26950D01*
X60451Y-27248D01*
X60564Y-27524D01*
X60775Y-27735D01*
X61050Y-27849D01*
X61348Y-27849D01*
X61624Y-27736D01*
X61835Y-27525D01*
X61949Y-27250D01*
X61949Y-28552D01*
X61836Y-28276D01*
X61625Y-28065D01*
X61350Y-27951D01*
X61052Y-27951D01*
X60776Y-28064D01*
X60565Y-28275D01*
X60451Y-28550D01*
X60451Y-28848D01*
X60564Y-29124D01*
X60775Y-29335D01*
X61050Y-29449D01*
X61207Y-29449D01*
X61309Y-29551D01*
X61052Y-29551D01*
X60776Y-29664D01*
X60565Y-29875D01*
X60451Y-30150D01*
X60451Y-30448D01*
X60564Y-30724D01*
X60675Y-30835D01*
X60675Y-31374D01*
X60565Y-31484D01*
X60500Y-31640D01*
X60500Y-31809D01*
X60500Y-32359D01*
X60564Y-32515D01*
X60684Y-32635D01*
X60840Y-32700D01*
X61009Y-32700D01*
X61559Y-32700D01*
X61715Y-32636D01*
X61835Y-32516D01*
X61900Y-32360D01*
X61900Y-32191D01*
X61900Y-32042D01*
X62228Y-32371D01*
X62229Y-32371D01*
X62399Y-32485D01*
X62600Y-32525D01*
X62736Y-32525D01*
X62803Y-32592D01*
X63060Y-32699D01*
X63338Y-32699D01*
X63596Y-32593D01*
X63664Y-32525D01*
X64400Y-32525D01*
X64601Y-32485D01*
X64771Y-32371D01*
X65071Y-32071D01*
X65185Y-31901D01*
X65224Y-31700D01*
X65225Y-31700D01*
X65225Y-29717D01*
X65691Y-29251D01*
X65775Y-29335D01*
X66050Y-29449D01*
X66348Y-29449D01*
X66624Y-29336D01*
X66835Y-29125D01*
X66949Y-28850D01*
X66949Y-30152D01*
X66836Y-29876D01*
X66625Y-29665D01*
X66350Y-29551D01*
X66052Y-29551D01*
X65776Y-29664D01*
X65565Y-29875D01*
X65451Y-30150D01*
X65451Y-30448D01*
X65564Y-30724D01*
X65775Y-30935D01*
X66050Y-31049D01*
X66348Y-31049D01*
X66624Y-30936D01*
X66835Y-30725D01*
X66949Y-30450D01*
X66949Y-38007D01*
X66920Y-38036D01*
X66900Y-38084D01*
X66900Y-32360D01*
X66900Y-32191D01*
X66900Y-31641D01*
X66836Y-31485D01*
X66716Y-31365D01*
X66560Y-31300D01*
X66391Y-31300D01*
X65841Y-31300D01*
X65685Y-31364D01*
X65565Y-31484D01*
X65500Y-31640D01*
X65500Y-31809D01*
X65500Y-32359D01*
X65564Y-32515D01*
X65684Y-32635D01*
X65840Y-32700D01*
X66009Y-32700D01*
X66559Y-32700D01*
X66715Y-32636D01*
X66835Y-32516D01*
X66900Y-32360D01*
X66900Y-38084D01*
X66825Y-38264D01*
X66825Y-36100D01*
X66785Y-35899D01*
X66671Y-35729D01*
X65171Y-34229D01*
X65001Y-34115D01*
X64800Y-34075D01*
X58949Y-34075D01*
X58949Y-30450D01*
X58949Y-30152D01*
X58949Y-28850D01*
X58949Y-28552D01*
X58949Y-27250D01*
X58949Y-26952D01*
X58836Y-26676D01*
X58625Y-26465D01*
X58350Y-26351D01*
X58052Y-26351D01*
X57776Y-26464D01*
X57725Y-26515D01*
X57725Y-25145D01*
X57725Y-24856D01*
X57615Y-24590D01*
X57525Y-24500D01*
X57614Y-24411D01*
X57725Y-24145D01*
X57725Y-23856D01*
X57615Y-23590D01*
X57411Y-23386D01*
X57145Y-23275D01*
X56856Y-23275D01*
X56590Y-23385D01*
X56500Y-23475D01*
X56411Y-23386D01*
X56145Y-23275D01*
X55856Y-23275D01*
X55590Y-23385D01*
X55500Y-23475D01*
X55411Y-23386D01*
X55145Y-23275D01*
X54856Y-23275D01*
X54590Y-23385D01*
X54500Y-23475D01*
X54411Y-23386D01*
X54145Y-23275D01*
X53856Y-23275D01*
X53590Y-23385D01*
X53500Y-23475D01*
X53411Y-23386D01*
X53145Y-23275D01*
X52856Y-23275D01*
X52590Y-23385D01*
X52386Y-23589D01*
X52275Y-23855D01*
X52275Y-24144D01*
X52385Y-24410D01*
X52387Y-24412D01*
X52340Y-24459D01*
X52275Y-24615D01*
X52275Y-24784D01*
X52275Y-25384D01*
X52339Y-25540D01*
X52459Y-25660D01*
X52615Y-25725D01*
X52784Y-25725D01*
X53384Y-25725D01*
X53540Y-25661D01*
X53588Y-25613D01*
X53589Y-25614D01*
X53855Y-25725D01*
X54144Y-25725D01*
X54410Y-25615D01*
X54500Y-25525D01*
X54589Y-25614D01*
X54855Y-25725D01*
X55144Y-25725D01*
X55410Y-25615D01*
X55500Y-25525D01*
X55589Y-25614D01*
X55855Y-25725D01*
X56144Y-25725D01*
X56410Y-25615D01*
X56500Y-25525D01*
X56589Y-25614D01*
X56855Y-25725D01*
X57144Y-25725D01*
X57410Y-25615D01*
X57614Y-25411D01*
X57725Y-25145D01*
X57725Y-26515D01*
X57565Y-26675D01*
X57451Y-26950D01*
X57451Y-27248D01*
X57564Y-27524D01*
X57775Y-27735D01*
X58050Y-27849D01*
X58348Y-27849D01*
X58624Y-27736D01*
X58835Y-27525D01*
X58949Y-27250D01*
X58949Y-28552D01*
X58836Y-28276D01*
X58625Y-28065D01*
X58350Y-27951D01*
X58052Y-27951D01*
X57776Y-28064D01*
X57565Y-28275D01*
X57451Y-28550D01*
X57451Y-28848D01*
X57564Y-29124D01*
X57775Y-29335D01*
X58050Y-29449D01*
X58348Y-29449D01*
X58624Y-29336D01*
X58835Y-29125D01*
X58949Y-28850D01*
X58949Y-30152D01*
X58836Y-29876D01*
X58625Y-29665D01*
X58350Y-29551D01*
X58052Y-29551D01*
X57776Y-29664D01*
X57565Y-29875D01*
X57451Y-30150D01*
X57451Y-30448D01*
X57564Y-30724D01*
X57775Y-30935D01*
X58050Y-31049D01*
X58348Y-31049D01*
X58624Y-30936D01*
X58835Y-30725D01*
X58949Y-30450D01*
X58949Y-34075D01*
X58899Y-34075D01*
X58899Y-32140D01*
X58899Y-31862D01*
X58793Y-31604D01*
X58597Y-31408D01*
X58340Y-31301D01*
X58062Y-31301D01*
X57804Y-31407D01*
X57608Y-31603D01*
X57501Y-31860D01*
X57501Y-32138D01*
X57607Y-32396D01*
X57803Y-32592D01*
X58060Y-32699D01*
X58338Y-32699D01*
X58596Y-32593D01*
X58792Y-32397D01*
X58899Y-32140D01*
X58899Y-34075D01*
X57617Y-34075D01*
X56625Y-33082D01*
X56625Y-27800D01*
X56624Y-27799D01*
X56585Y-27599D01*
X56516Y-27496D01*
X56471Y-27429D01*
X56471Y-27428D01*
X55772Y-26730D01*
X55771Y-26729D01*
X55771Y-26728D01*
X55421Y-26379D01*
X55251Y-26265D01*
X55050Y-26225D01*
X52650Y-26225D01*
X50160Y-26225D01*
X50050Y-26225D01*
X49635Y-26225D01*
X49635Y-26165D01*
X49745Y-26055D01*
X49859Y-25780D01*
X49859Y-25482D01*
X49746Y-25206D01*
X49670Y-25130D01*
X49745Y-25055D01*
X49859Y-24780D01*
X49859Y-24482D01*
X49746Y-24206D01*
X49535Y-23995D01*
X49260Y-23881D01*
X48962Y-23881D01*
X48686Y-23994D01*
X48475Y-24205D01*
X48361Y-24480D01*
X48361Y-24778D01*
X48474Y-25054D01*
X48550Y-25130D01*
X48475Y-25205D01*
X48361Y-25480D01*
X48361Y-25778D01*
X48474Y-26054D01*
X48585Y-26165D01*
X48585Y-26773D01*
X48583Y-26775D01*
X47307Y-26775D01*
X46221Y-25689D01*
X46201Y-25659D01*
X46031Y-25545D01*
X45830Y-25505D01*
X45824Y-25505D01*
X45868Y-25487D01*
X45930Y-25425D01*
X45991Y-25486D01*
X46275Y-25605D01*
X46583Y-25605D01*
X46868Y-25487D01*
X47086Y-25269D01*
X47205Y-24985D01*
X47205Y-24677D01*
X47087Y-24392D01*
X46869Y-24174D01*
X46585Y-24055D01*
X46277Y-24055D01*
X45992Y-24173D01*
X45930Y-24235D01*
X45869Y-24174D01*
X45585Y-24055D01*
X45277Y-24055D01*
X44992Y-24173D01*
X44774Y-24391D01*
X44655Y-24675D01*
X44655Y-24983D01*
X44773Y-25268D01*
X44991Y-25486D01*
X45036Y-25505D01*
X43754Y-25505D01*
X43942Y-25317D01*
X44060Y-25034D01*
X44060Y-24728D01*
X43943Y-24444D01*
X43727Y-24228D01*
X43444Y-24110D01*
X43138Y-24110D01*
X42854Y-24227D01*
X42790Y-24291D01*
X42727Y-24228D01*
X42444Y-24110D01*
X42138Y-24110D01*
X41854Y-24227D01*
X41638Y-24443D01*
X41520Y-24726D01*
X41520Y-25032D01*
X41637Y-25316D01*
X41793Y-25472D01*
X41805Y-25531D01*
X41919Y-25701D01*
X42618Y-26401D01*
X42619Y-26401D01*
X42686Y-26446D01*
X42789Y-26515D01*
X42989Y-26554D01*
X42990Y-26555D01*
X45602Y-26555D01*
X46252Y-27205D01*
X46149Y-27309D01*
X46060Y-27397D01*
X46058Y-27399D01*
X45835Y-27622D01*
X45835Y-27180D01*
X45771Y-27024D01*
X45651Y-26904D01*
X45495Y-26839D01*
X45326Y-26839D01*
X44106Y-26839D01*
X43950Y-26903D01*
X43878Y-26975D01*
X42600Y-26975D01*
X42399Y-27015D01*
X42296Y-27083D01*
X42228Y-27129D01*
X41856Y-27501D01*
X41762Y-27501D01*
X41504Y-27607D01*
X41308Y-27803D01*
X41201Y-28060D01*
X41201Y-28338D01*
X41307Y-28596D01*
X41330Y-28619D01*
X41265Y-28684D01*
X41200Y-28840D01*
X41200Y-29009D01*
X41200Y-29559D01*
X41264Y-29715D01*
X41375Y-29826D01*
X41375Y-30000D01*
X41415Y-30201D01*
X41529Y-30371D01*
X41928Y-30771D01*
X41929Y-30771D01*
X42099Y-30885D01*
X42300Y-30925D01*
X44052Y-30925D01*
X44049Y-30929D01*
X44033Y-30951D01*
X44015Y-30967D01*
X43657Y-31401D01*
X43572Y-31401D01*
X43296Y-31514D01*
X43220Y-31590D01*
X43145Y-31515D01*
X42870Y-31401D01*
X42572Y-31401D01*
X42296Y-31514D01*
X42085Y-31725D01*
X41971Y-32000D01*
X41971Y-32298D01*
X42084Y-32574D01*
X42295Y-32785D01*
X42570Y-32899D01*
X42868Y-32899D01*
X43144Y-32786D01*
X43220Y-32710D01*
X43295Y-32785D01*
X43570Y-32899D01*
X43868Y-32899D01*
X43980Y-32852D01*
X44075Y-32947D01*
X44075Y-35930D01*
X43944Y-36061D01*
X43825Y-36345D01*
X43825Y-36653D01*
X43943Y-36938D01*
X44075Y-37070D01*
X44075Y-37200D01*
X44115Y-37401D01*
X44229Y-37571D01*
X44828Y-38171D01*
X44829Y-38171D01*
X44999Y-38285D01*
X45200Y-38325D01*
X48372Y-38325D01*
X49312Y-39264D01*
X49312Y-39817D01*
X49376Y-39973D01*
X49496Y-40093D01*
X49652Y-40158D01*
X49821Y-40158D01*
X50607Y-40158D01*
X50763Y-40094D01*
X50777Y-40079D01*
X50967Y-40158D01*
X51292Y-40158D01*
X51593Y-40034D01*
X51630Y-39997D01*
X51666Y-40033D01*
X51967Y-40158D01*
X52292Y-40158D01*
X52593Y-40034D01*
X52630Y-39997D01*
X52666Y-40033D01*
X52967Y-40158D01*
X53292Y-40158D01*
X53593Y-40034D01*
X53630Y-39997D01*
X53666Y-40033D01*
X53682Y-40040D01*
X53715Y-40201D01*
X53829Y-40371D01*
X54398Y-40941D01*
X54082Y-40941D01*
X53926Y-41005D01*
X53889Y-41041D01*
X53651Y-40942D01*
X53350Y-40942D01*
X53071Y-41057D01*
X53000Y-41128D01*
X52930Y-41058D01*
X52651Y-40942D01*
X52350Y-40942D01*
X52071Y-41057D01*
X51858Y-41270D01*
X51742Y-41549D01*
X51742Y-41850D01*
X51857Y-42129D01*
X52070Y-42342D01*
X52349Y-42458D01*
X52650Y-42458D01*
X52929Y-42343D01*
X53000Y-42272D01*
X53070Y-42342D01*
X53349Y-42458D01*
X53650Y-42458D01*
X53890Y-42359D01*
X53925Y-42394D01*
X54081Y-42459D01*
X54250Y-42459D01*
X54918Y-42459D01*
X55074Y-42395D01*
X55194Y-42275D01*
X55259Y-42119D01*
X55259Y-41950D01*
X55259Y-41282D01*
X55235Y-41225D01*
X57600Y-41225D01*
X57801Y-41185D01*
X57971Y-41071D01*
X58625Y-40417D01*
X58625Y-40453D01*
X58743Y-40738D01*
X58961Y-40956D01*
X59245Y-41075D01*
X59553Y-41075D01*
X59838Y-40957D01*
X60056Y-40739D01*
X60175Y-40455D01*
X60175Y-40147D01*
X60057Y-39862D01*
X59839Y-39644D01*
X59555Y-39525D01*
X59247Y-39525D01*
X58962Y-39643D01*
X58925Y-39680D01*
X58925Y-37058D01*
X58965Y-37075D01*
X59134Y-37075D01*
X59160Y-37075D01*
X59306Y-37478D01*
X59312Y-37488D01*
X59315Y-37501D01*
X59365Y-37577D01*
X59412Y-37653D01*
X59421Y-37660D01*
X59429Y-37671D01*
X59729Y-37971D01*
X59899Y-38085D01*
X60100Y-38125D01*
X61589Y-38125D01*
X61575Y-38200D01*
X61575Y-39646D01*
X61553Y-39624D01*
X61260Y-39502D01*
X60942Y-39502D01*
X60648Y-39623D01*
X60424Y-39847D01*
X60302Y-40140D01*
X60302Y-40458D01*
X60423Y-40752D01*
X60647Y-40976D01*
X60940Y-41098D01*
X61258Y-41098D01*
X61552Y-40977D01*
X61600Y-40928D01*
X61615Y-41001D01*
X61729Y-41171D01*
X62529Y-41971D01*
X62699Y-42085D01*
X62900Y-42125D01*
X63482Y-42125D01*
X64275Y-42917D01*
X64275Y-42964D01*
X64219Y-42941D01*
X64050Y-42941D01*
X63382Y-42941D01*
X63226Y-43005D01*
X63106Y-43125D01*
X63041Y-43281D01*
X63041Y-43450D01*
X63041Y-44118D01*
X63105Y-44274D01*
X63225Y-44394D01*
X63381Y-44459D01*
X63550Y-44459D01*
X64218Y-44459D01*
X64374Y-44395D01*
X64410Y-44358D01*
X64649Y-44458D01*
X64950Y-44458D01*
X65229Y-44343D01*
X65442Y-44130D01*
X65558Y-43851D01*
X65558Y-43550D01*
X65443Y-43271D01*
X65325Y-43153D01*
X65325Y-42700D01*
X65285Y-42499D01*
X65171Y-42329D01*
X65171Y-42328D01*
X64071Y-41229D01*
X63901Y-41115D01*
X63700Y-41075D01*
X63313Y-41075D01*
X63552Y-40977D01*
X63776Y-40753D01*
X63898Y-40460D01*
X63898Y-40142D01*
X63777Y-39848D01*
X63553Y-39624D01*
X63260Y-39502D01*
X62942Y-39502D01*
X62648Y-39623D01*
X62625Y-39646D01*
X62625Y-38417D01*
X62917Y-38125D01*
X64500Y-38125D01*
X64701Y-38085D01*
X64871Y-37971D01*
X65426Y-37417D01*
X65426Y-37416D01*
X65471Y-37348D01*
X65539Y-37246D01*
X65540Y-37246D01*
X65579Y-37046D01*
X65580Y-37045D01*
X65580Y-36849D01*
X65676Y-36753D01*
X65775Y-36515D01*
X65775Y-40086D01*
X65677Y-39848D01*
X65453Y-39624D01*
X65160Y-39502D01*
X64842Y-39502D01*
X64548Y-39623D01*
X64324Y-39847D01*
X64202Y-40140D01*
X64202Y-40458D01*
X64323Y-40752D01*
X64547Y-40976D01*
X64840Y-41098D01*
X65158Y-41098D01*
X65452Y-40977D01*
X65676Y-40753D01*
X65775Y-40515D01*
X65775Y-41900D01*
X65815Y-42101D01*
X65929Y-42271D01*
X66042Y-42384D01*
X66042Y-42550D01*
X66157Y-42829D01*
X66370Y-43042D01*
X66649Y-43158D01*
X66950Y-43158D01*
X67229Y-43043D01*
X67300Y-42972D01*
X67370Y-43042D01*
X67649Y-43158D01*
X67950Y-43158D01*
X68229Y-43043D01*
X68442Y-42830D01*
X68558Y-42551D01*
X68558Y-42250D01*
X68443Y-41971D01*
X68230Y-41758D01*
X67951Y-41642D01*
X67650Y-41642D01*
X67371Y-41757D01*
X67300Y-41828D01*
X67230Y-41758D01*
X66951Y-41642D01*
X66825Y-41642D01*
X66825Y-38734D01*
X66919Y-38963D01*
X67149Y-39193D01*
X67450Y-39318D01*
X67775Y-39318D01*
X68076Y-39194D01*
X68306Y-38964D01*
X68400Y-38737D01*
X68493Y-38963D01*
X68723Y-39193D01*
X69024Y-39318D01*
X69349Y-39318D01*
X69650Y-39194D01*
X69880Y-38964D01*
X70005Y-38663D01*
X70005Y-42034D01*
X69750Y-42289D01*
X69505Y-42879D01*
X69504Y-43518D01*
X69748Y-44108D01*
X70199Y-44560D01*
X70789Y-44805D01*
X71428Y-44806D01*
X72018Y-44562D01*
X72470Y-44111D01*
X72715Y-43521D01*
X72716Y-42882D01*
X72716Y-45500D01*
X48675Y-45500D01*
X48675Y-40755D01*
X48675Y-40447D01*
X48557Y-40162D01*
X48425Y-40030D01*
X48425Y-40000D01*
X48385Y-39799D01*
X48271Y-39629D01*
X48271Y-39628D01*
X47671Y-39029D01*
X47501Y-38915D01*
X47300Y-38875D01*
X44900Y-38875D01*
X44699Y-38915D01*
X44596Y-38983D01*
X44528Y-39029D01*
X44329Y-39229D01*
X44215Y-39399D01*
X44175Y-39600D01*
X44175Y-39725D01*
X44166Y-39725D01*
X44010Y-39789D01*
X43890Y-39909D01*
X43825Y-40065D01*
X43825Y-40234D01*
X43825Y-40934D01*
X43889Y-41090D01*
X44009Y-41210D01*
X44165Y-41275D01*
X44334Y-41275D01*
X45034Y-41275D01*
X45190Y-41211D01*
X45310Y-41091D01*
X45375Y-40935D01*
X45375Y-40766D01*
X45375Y-40066D01*
X45317Y-39925D01*
X45805Y-39925D01*
X45762Y-39943D01*
X45544Y-40161D01*
X45425Y-40445D01*
X45425Y-40753D01*
X45543Y-41038D01*
X45761Y-41256D01*
X46045Y-41375D01*
X46353Y-41375D01*
X46638Y-41257D01*
X46856Y-41039D01*
X46975Y-40755D01*
X46975Y-40447D01*
X46857Y-40162D01*
X46639Y-39944D01*
X46593Y-39925D01*
X47082Y-39925D01*
X47281Y-40123D01*
X47244Y-40161D01*
X47125Y-40445D01*
X47125Y-40753D01*
X47243Y-41038D01*
X47461Y-41256D01*
X47745Y-41375D01*
X48053Y-41375D01*
X48338Y-41257D01*
X48556Y-41039D01*
X48675Y-40755D01*
X48675Y-45500D01*
X48258Y-45500D01*
X48258Y-43851D01*
X48258Y-43550D01*
X48143Y-43271D01*
X47930Y-43058D01*
X47651Y-42942D01*
X47350Y-42942D01*
X47109Y-43040D01*
X47075Y-43006D01*
X46919Y-42941D01*
X46750Y-42941D01*
X46082Y-42941D01*
X45926Y-43005D01*
X45806Y-43125D01*
X45741Y-43281D01*
X45741Y-43450D01*
X45741Y-44118D01*
X45805Y-44274D01*
X45925Y-44394D01*
X46081Y-44459D01*
X46250Y-44459D01*
X46918Y-44459D01*
X47074Y-44395D01*
X47110Y-44358D01*
X47349Y-44458D01*
X47650Y-44458D01*
X47929Y-44343D01*
X48142Y-44130D01*
X48258Y-43851D01*
X48258Y-45500D01*
X43675Y-45500D01*
X43675Y-40935D01*
X43675Y-40766D01*
X43675Y-40066D01*
X43675Y-36655D01*
X43675Y-36347D01*
X43557Y-36062D01*
X43339Y-35844D01*
X43055Y-35725D01*
X42747Y-35725D01*
X42462Y-35843D01*
X42244Y-36061D01*
X42125Y-36345D01*
X42125Y-36653D01*
X42243Y-36938D01*
X42461Y-37156D01*
X42745Y-37275D01*
X43053Y-37275D01*
X43338Y-37157D01*
X43556Y-36939D01*
X43675Y-36655D01*
X43675Y-40066D01*
X43611Y-39910D01*
X43491Y-39790D01*
X43335Y-39725D01*
X43166Y-39725D01*
X42466Y-39725D01*
X42310Y-39789D01*
X42190Y-39909D01*
X42125Y-40065D01*
X42125Y-40234D01*
X42125Y-40934D01*
X42189Y-41090D01*
X42309Y-41210D01*
X42465Y-41275D01*
X42634Y-41275D01*
X43334Y-41275D01*
X43490Y-41211D01*
X43610Y-41091D01*
X43675Y-40935D01*
X43675Y-45500D01*
X43106Y-45500D01*
X43106Y-42772D01*
X42862Y-42182D01*
X42411Y-41730D01*
X41821Y-41485D01*
X41182Y-41484D01*
X40592Y-41728D01*
X40140Y-42179D01*
X39895Y-42769D01*
X39894Y-43408D01*
X40138Y-43998D01*
X40589Y-44450D01*
X41179Y-44695D01*
X41818Y-44696D01*
X42408Y-44452D01*
X42860Y-44001D01*
X43105Y-43411D01*
X43106Y-42772D01*
X43106Y-45500D01*
X39000Y-45500D01*
X39000Y-22500D01*
X73400Y-22500D01*
X73400Y-45500D01*
X73400Y-45500D01*
G37*
G54D30*
X73400Y-45500D02*
X72716Y-45500D01*
X72716Y-42882D01*
X72472Y-42292D01*
X72359Y-42178D01*
X72359Y-37419D01*
X72359Y-37250D01*
X72359Y-36582D01*
X72295Y-36426D01*
X72175Y-36306D01*
X72019Y-36241D01*
X71850Y-36241D01*
X71649Y-36241D01*
X71649Y-30450D01*
X71649Y-30152D01*
X71536Y-29876D01*
X71325Y-29665D01*
X71050Y-29551D01*
X70752Y-29551D01*
X70476Y-29664D01*
X70365Y-29775D01*
X70325Y-29775D01*
X70325Y-29185D01*
X70475Y-29335D01*
X70750Y-29449D01*
X71048Y-29449D01*
X71324Y-29336D01*
X71535Y-29125D01*
X71649Y-28850D01*
X71649Y-28552D01*
X71536Y-28276D01*
X71325Y-28065D01*
X71050Y-27951D01*
X70752Y-27951D01*
X70476Y-28064D01*
X70325Y-28215D01*
X70325Y-27585D01*
X70475Y-27735D01*
X70750Y-27849D01*
X71048Y-27849D01*
X71324Y-27736D01*
X71535Y-27525D01*
X71649Y-27250D01*
X71649Y-26952D01*
X71536Y-26676D01*
X71325Y-26465D01*
X71050Y-26351D01*
X70752Y-26351D01*
X70476Y-26464D01*
X70325Y-26615D01*
X70325Y-26300D01*
X70285Y-26099D01*
X70171Y-25929D01*
X69171Y-24929D01*
X69001Y-24815D01*
X68800Y-24775D01*
X66917Y-24775D01*
X65771Y-23629D01*
X65601Y-23515D01*
X65400Y-23475D01*
X62985Y-23475D01*
X62845Y-23335D01*
X62557Y-23216D01*
X62245Y-23215D01*
X61956Y-23334D01*
X61900Y-23390D01*
X61845Y-23335D01*
X61557Y-23216D01*
X61245Y-23215D01*
X60956Y-23334D01*
X60900Y-23390D01*
X60845Y-23335D01*
X60557Y-23216D01*
X60245Y-23215D01*
X59956Y-23334D01*
X59735Y-23555D01*
X59616Y-23843D01*
X59615Y-24155D01*
X59710Y-24388D01*
X59690Y-24409D01*
X59625Y-24565D01*
X59625Y-24734D01*
X59625Y-25434D01*
X59689Y-25590D01*
X59809Y-25710D01*
X59965Y-25775D01*
X60134Y-25775D01*
X60834Y-25775D01*
X60990Y-25711D01*
X61012Y-25688D01*
X61243Y-25784D01*
X61555Y-25785D01*
X61844Y-25666D01*
X61900Y-25610D01*
X61955Y-25665D01*
X62243Y-25784D01*
X62555Y-25785D01*
X62844Y-25666D01*
X63065Y-25445D01*
X63184Y-25157D01*
X63185Y-24845D01*
X63066Y-24556D01*
X63035Y-24525D01*
X65182Y-24525D01*
X66328Y-25671D01*
X66329Y-25671D01*
X66499Y-25785D01*
X66700Y-25825D01*
X68583Y-25825D01*
X69275Y-26517D01*
X69275Y-30000D01*
X69315Y-30201D01*
X69429Y-30371D01*
X69729Y-30671D01*
X69899Y-30785D01*
X70100Y-30825D01*
X70365Y-30825D01*
X70475Y-30935D01*
X70750Y-31049D01*
X71048Y-31049D01*
X71324Y-30936D01*
X71535Y-30725D01*
X71649Y-30450D01*
X71649Y-36241D01*
X71600Y-36241D01*
X71600Y-32360D01*
X71600Y-32191D01*
X71600Y-31641D01*
X71536Y-31485D01*
X71416Y-31365D01*
X71260Y-31300D01*
X71091Y-31300D01*
X70541Y-31300D01*
X70385Y-31364D01*
X70265Y-31484D01*
X70200Y-31640D01*
X70200Y-31809D01*
X70200Y-32359D01*
X70264Y-32515D01*
X70384Y-32635D01*
X70540Y-32700D01*
X70709Y-32700D01*
X71259Y-32700D01*
X71415Y-32636D01*
X71535Y-32516D01*
X71600Y-32360D01*
X71600Y-36241D01*
X71583Y-36241D01*
X69671Y-34329D01*
X69659Y-34320D01*
X69659Y-34282D01*
X69595Y-34126D01*
X69475Y-34006D01*
X69319Y-33941D01*
X69150Y-33941D01*
X68649Y-33941D01*
X68649Y-30450D01*
X68649Y-30152D01*
X68649Y-28850D01*
X68649Y-28552D01*
X68649Y-27250D01*
X68649Y-26952D01*
X68536Y-26676D01*
X68325Y-26465D01*
X68050Y-26351D01*
X67752Y-26351D01*
X67476Y-26464D01*
X67265Y-26675D01*
X67151Y-26950D01*
X67151Y-27248D01*
X67264Y-27524D01*
X67475Y-27735D01*
X67750Y-27849D01*
X68048Y-27849D01*
X68324Y-27736D01*
X68535Y-27525D01*
X68649Y-27250D01*
X68649Y-28552D01*
X68536Y-28276D01*
X68325Y-28065D01*
X68050Y-27951D01*
X67752Y-27951D01*
X67476Y-28064D01*
X67265Y-28275D01*
X67151Y-28550D01*
X67151Y-28848D01*
X67264Y-29124D01*
X67475Y-29335D01*
X67750Y-29449D01*
X68048Y-29449D01*
X68324Y-29336D01*
X68535Y-29125D01*
X68649Y-28850D01*
X68649Y-30152D01*
X68536Y-29876D01*
X68325Y-29665D01*
X68050Y-29551D01*
X67752Y-29551D01*
X67476Y-29664D01*
X67265Y-29875D01*
X67151Y-30150D01*
X67151Y-30448D01*
X67264Y-30724D01*
X67475Y-30935D01*
X67750Y-31049D01*
X68048Y-31049D01*
X68324Y-30936D01*
X68535Y-30725D01*
X68649Y-30450D01*
X68649Y-33941D01*
X68599Y-33941D01*
X68599Y-32140D01*
X68599Y-31862D01*
X68493Y-31604D01*
X68297Y-31408D01*
X68040Y-31301D01*
X67762Y-31301D01*
X67504Y-31407D01*
X67308Y-31603D01*
X67201Y-31860D01*
X67201Y-32138D01*
X67307Y-32396D01*
X67503Y-32592D01*
X67760Y-32699D01*
X68038Y-32699D01*
X68296Y-32593D01*
X68492Y-32397D01*
X68599Y-32140D01*
X68599Y-33941D01*
X68482Y-33941D01*
X68326Y-34005D01*
X68289Y-34041D01*
X68051Y-33942D01*
X67750Y-33942D01*
X67471Y-34057D01*
X67258Y-34270D01*
X67142Y-34549D01*
X67142Y-34850D01*
X67257Y-35129D01*
X67470Y-35342D01*
X67749Y-35458D01*
X68050Y-35458D01*
X68290Y-35359D01*
X68325Y-35394D01*
X68481Y-35459D01*
X68650Y-35459D01*
X69316Y-35459D01*
X70841Y-36983D01*
X70841Y-37418D01*
X70905Y-37574D01*
X70941Y-37610D01*
X70842Y-37849D01*
X70842Y-38150D01*
X70957Y-38429D01*
X71170Y-38642D01*
X71449Y-38758D01*
X71750Y-38758D01*
X72029Y-38643D01*
X72242Y-38430D01*
X72358Y-38151D01*
X72358Y-37850D01*
X72259Y-37609D01*
X72294Y-37575D01*
X72359Y-37419D01*
X72359Y-42178D01*
X72021Y-41840D01*
X71431Y-41595D01*
X70792Y-41594D01*
X70202Y-41838D01*
X70005Y-42034D01*
X70005Y-38663D01*
X70005Y-38338D01*
X69881Y-38037D01*
X69651Y-37807D01*
X69350Y-37682D01*
X69025Y-37682D01*
X68724Y-37806D01*
X68494Y-38036D01*
X68399Y-38262D01*
X68307Y-38037D01*
X68077Y-37807D01*
X67776Y-37682D01*
X67451Y-37682D01*
X67150Y-37806D01*
X66949Y-38007D01*
X66949Y-30450D01*
X66949Y-30152D01*
X66949Y-28850D01*
X66949Y-28552D01*
X66949Y-27250D01*
X66949Y-26952D01*
X66836Y-26676D01*
X66625Y-26465D01*
X66350Y-26351D01*
X66052Y-26351D01*
X65776Y-26464D01*
X65565Y-26675D01*
X65451Y-26950D01*
X65451Y-27248D01*
X65564Y-27524D01*
X65775Y-27735D01*
X66050Y-27849D01*
X66348Y-27849D01*
X66624Y-27736D01*
X66835Y-27525D01*
X66949Y-27250D01*
X66949Y-28552D01*
X66836Y-28276D01*
X66625Y-28065D01*
X66350Y-27951D01*
X66052Y-27951D01*
X65776Y-28064D01*
X65665Y-28175D01*
X65500Y-28175D01*
X65299Y-28215D01*
X65129Y-28329D01*
X64329Y-29129D01*
X64215Y-29299D01*
X64175Y-29500D01*
X64175Y-29700D01*
X64175Y-31475D01*
X63664Y-31475D01*
X63597Y-31408D01*
X63340Y-31301D01*
X63062Y-31301D01*
X62804Y-31407D01*
X62776Y-31434D01*
X62725Y-31382D01*
X62725Y-30885D01*
X62775Y-30935D01*
X63050Y-31049D01*
X63348Y-31049D01*
X63624Y-30936D01*
X63835Y-30725D01*
X63949Y-30450D01*
X63949Y-30152D01*
X63949Y-28850D01*
X63949Y-28552D01*
X63949Y-27250D01*
X63949Y-26952D01*
X63836Y-26676D01*
X63625Y-26465D01*
X63350Y-26351D01*
X63052Y-26351D01*
X62776Y-26464D01*
X62565Y-26675D01*
X62451Y-26950D01*
X62451Y-27248D01*
X62564Y-27524D01*
X62775Y-27735D01*
X63050Y-27849D01*
X63348Y-27849D01*
X63624Y-27736D01*
X63835Y-27525D01*
X63949Y-27250D01*
X63949Y-28552D01*
X63836Y-28276D01*
X63625Y-28065D01*
X63350Y-27951D01*
X63052Y-27951D01*
X62776Y-28064D01*
X62565Y-28275D01*
X62451Y-28550D01*
X62451Y-28848D01*
X62564Y-29124D01*
X62775Y-29335D01*
X63050Y-29449D01*
X63348Y-29449D01*
X63624Y-29336D01*
X63835Y-29125D01*
X63949Y-28850D01*
X63949Y-30152D01*
X63836Y-29876D01*
X63625Y-29665D01*
X63350Y-29551D01*
X63052Y-29551D01*
X62776Y-29664D01*
X62725Y-29715D01*
X62725Y-29700D01*
X62685Y-29499D01*
X62571Y-29329D01*
X61949Y-28707D01*
X61949Y-28552D01*
X61949Y-27250D01*
X61949Y-26952D01*
X61836Y-26676D01*
X61625Y-26465D01*
X61350Y-26351D01*
X61052Y-26351D01*
X60776Y-26464D01*
X60565Y-26675D01*
X60451Y-26950D01*
X60451Y-27248D01*
X60564Y-27524D01*
X60775Y-27735D01*
X61050Y-27849D01*
X61348Y-27849D01*
X61624Y-27736D01*
X61835Y-27525D01*
X61949Y-27250D01*
X61949Y-28552D01*
X61836Y-28276D01*
X61625Y-28065D01*
X61350Y-27951D01*
X61052Y-27951D01*
X60776Y-28064D01*
X60565Y-28275D01*
X60451Y-28550D01*
X60451Y-28848D01*
X60564Y-29124D01*
X60775Y-29335D01*
X61050Y-29449D01*
X61207Y-29449D01*
X61309Y-29551D01*
X61052Y-29551D01*
X60776Y-29664D01*
X60565Y-29875D01*
X60451Y-30150D01*
X60451Y-30448D01*
X60564Y-30724D01*
X60675Y-30835D01*
X60675Y-31374D01*
X60565Y-31484D01*
X60500Y-31640D01*
X60500Y-31809D01*
X60500Y-32359D01*
X60564Y-32515D01*
X60684Y-32635D01*
X60840Y-32700D01*
X61009Y-32700D01*
X61559Y-32700D01*
X61715Y-32636D01*
X61835Y-32516D01*
X61900Y-32360D01*
X61900Y-32191D01*
X61900Y-32042D01*
X62228Y-32371D01*
X62229Y-32371D01*
X62399Y-32485D01*
X62600Y-32525D01*
X62736Y-32525D01*
X62803Y-32592D01*
X63060Y-32699D01*
X63338Y-32699D01*
X63596Y-32593D01*
X63664Y-32525D01*
X64400Y-32525D01*
X64601Y-32485D01*
X64771Y-32371D01*
X65071Y-32071D01*
X65185Y-31901D01*
X65224Y-31700D01*
X65225Y-31700D01*
X65225Y-29717D01*
X65691Y-29251D01*
X65775Y-29335D01*
X66050Y-29449D01*
X66348Y-29449D01*
X66624Y-29336D01*
X66835Y-29125D01*
X66949Y-28850D01*
X66949Y-30152D01*
X66836Y-29876D01*
X66625Y-29665D01*
X66350Y-29551D01*
X66052Y-29551D01*
X65776Y-29664D01*
X65565Y-29875D01*
X65451Y-30150D01*
X65451Y-30448D01*
X65564Y-30724D01*
X65775Y-30935D01*
X66050Y-31049D01*
X66348Y-31049D01*
X66624Y-30936D01*
X66835Y-30725D01*
X66949Y-30450D01*
X66949Y-38007D01*
X66920Y-38036D01*
X66900Y-38084D01*
X66900Y-32360D01*
X66900Y-32191D01*
X66900Y-31641D01*
X66836Y-31485D01*
X66716Y-31365D01*
X66560Y-31300D01*
X66391Y-31300D01*
X65841Y-31300D01*
X65685Y-31364D01*
X65565Y-31484D01*
X65500Y-31640D01*
X65500Y-31809D01*
X65500Y-32359D01*
X65564Y-32515D01*
X65684Y-32635D01*
X65840Y-32700D01*
X66009Y-32700D01*
X66559Y-32700D01*
X66715Y-32636D01*
X66835Y-32516D01*
X66900Y-32360D01*
X66900Y-38084D01*
X66825Y-38264D01*
X66825Y-36100D01*
X66785Y-35899D01*
X66671Y-35729D01*
X65171Y-34229D01*
X65001Y-34115D01*
X64800Y-34075D01*
X58949Y-34075D01*
X58949Y-30450D01*
X58949Y-30152D01*
X58949Y-28850D01*
X58949Y-28552D01*
X58949Y-27250D01*
X58949Y-26952D01*
X58836Y-26676D01*
X58625Y-26465D01*
X58350Y-26351D01*
X58052Y-26351D01*
X57776Y-26464D01*
X57725Y-26515D01*
X57725Y-25145D01*
X57725Y-24856D01*
X57615Y-24590D01*
X57525Y-24500D01*
X57614Y-24411D01*
X57725Y-24145D01*
X57725Y-23856D01*
X57615Y-23590D01*
X57411Y-23386D01*
X57145Y-23275D01*
X56856Y-23275D01*
X56590Y-23385D01*
X56500Y-23475D01*
X56411Y-23386D01*
X56145Y-23275D01*
X55856Y-23275D01*
X55590Y-23385D01*
X55500Y-23475D01*
X55411Y-23386D01*
X55145Y-23275D01*
X54856Y-23275D01*
X54590Y-23385D01*
X54500Y-23475D01*
X54411Y-23386D01*
X54145Y-23275D01*
X53856Y-23275D01*
X53590Y-23385D01*
X53500Y-23475D01*
X53411Y-23386D01*
X53145Y-23275D01*
X52856Y-23275D01*
X52590Y-23385D01*
X52386Y-23589D01*
X52275Y-23855D01*
X52275Y-24144D01*
X52385Y-24410D01*
X52387Y-24412D01*
X52340Y-24459D01*
X52275Y-24615D01*
X52275Y-24784D01*
X52275Y-25384D01*
X52339Y-25540D01*
X52459Y-25660D01*
X52615Y-25725D01*
X52784Y-25725D01*
X53384Y-25725D01*
X53540Y-25661D01*
X53588Y-25613D01*
X53589Y-25614D01*
X53855Y-25725D01*
X54144Y-25725D01*
X54410Y-25615D01*
X54500Y-25525D01*
X54589Y-25614D01*
X54855Y-25725D01*
X55144Y-25725D01*
X55410Y-25615D01*
X55500Y-25525D01*
X55589Y-25614D01*
X55855Y-25725D01*
X56144Y-25725D01*
X56410Y-25615D01*
X56500Y-25525D01*
X56589Y-25614D01*
X56855Y-25725D01*
X57144Y-25725D01*
X57410Y-25615D01*
X57614Y-25411D01*
X57725Y-25145D01*
X57725Y-26515D01*
X57565Y-26675D01*
X57451Y-26950D01*
X57451Y-27248D01*
X57564Y-27524D01*
X57775Y-27735D01*
X58050Y-27849D01*
X58348Y-27849D01*
X58624Y-27736D01*
X58835Y-27525D01*
X58949Y-27250D01*
X58949Y-28552D01*
X58836Y-28276D01*
X58625Y-28065D01*
X58350Y-27951D01*
X58052Y-27951D01*
X57776Y-28064D01*
X57565Y-28275D01*
X57451Y-28550D01*
X57451Y-28848D01*
X57564Y-29124D01*
X57775Y-29335D01*
X58050Y-29449D01*
X58348Y-29449D01*
X58624Y-29336D01*
X58835Y-29125D01*
X58949Y-28850D01*
X58949Y-30152D01*
X58836Y-29876D01*
X58625Y-29665D01*
X58350Y-29551D01*
X58052Y-29551D01*
X57776Y-29664D01*
X57565Y-29875D01*
X57451Y-30150D01*
X57451Y-30448D01*
X57564Y-30724D01*
X57775Y-30935D01*
X58050Y-31049D01*
X58348Y-31049D01*
X58624Y-30936D01*
X58835Y-30725D01*
X58949Y-30450D01*
X58949Y-34075D01*
X58899Y-34075D01*
X58899Y-32140D01*
X58899Y-31862D01*
X58793Y-31604D01*
X58597Y-31408D01*
X58340Y-31301D01*
X58062Y-31301D01*
X57804Y-31407D01*
X57608Y-31603D01*
X57501Y-31860D01*
X57501Y-32138D01*
X57607Y-32396D01*
X57803Y-32592D01*
X58060Y-32699D01*
X58338Y-32699D01*
X58596Y-32593D01*
X58792Y-32397D01*
X58899Y-32140D01*
X58899Y-34075D01*
X57617Y-34075D01*
X56625Y-33082D01*
X56625Y-27800D01*
X56624Y-27799D01*
X56585Y-27599D01*
X56516Y-27496D01*
X56471Y-27429D01*
X56471Y-27428D01*
X55772Y-26730D01*
X55771Y-26729D01*
X55771Y-26728D01*
X55421Y-26379D01*
X55251Y-26265D01*
X55050Y-26225D01*
X52650Y-26225D01*
X50160Y-26225D01*
X50050Y-26225D01*
X49635Y-26225D01*
X49635Y-26165D01*
X49745Y-26055D01*
X49859Y-25780D01*
X49859Y-25482D01*
X49746Y-25206D01*
X49670Y-25130D01*
X49745Y-25055D01*
X49859Y-24780D01*
X49859Y-24482D01*
X49746Y-24206D01*
X49535Y-23995D01*
X49260Y-23881D01*
X48962Y-23881D01*
X48686Y-23994D01*
X48475Y-24205D01*
X48361Y-24480D01*
X48361Y-24778D01*
X48474Y-25054D01*
X48550Y-25130D01*
X48475Y-25205D01*
X48361Y-25480D01*
X48361Y-25778D01*
X48474Y-26054D01*
X48585Y-26165D01*
X48585Y-26773D01*
X48583Y-26775D01*
X47307Y-26775D01*
X46221Y-25689D01*
X46201Y-25659D01*
X46031Y-25545D01*
X45830Y-25505D01*
X45824Y-25505D01*
X45868Y-25487D01*
X45930Y-25425D01*
X45991Y-25486D01*
X46275Y-25605D01*
X46583Y-25605D01*
X46868Y-25487D01*
X47086Y-25269D01*
X47205Y-24985D01*
X47205Y-24677D01*
X47087Y-24392D01*
X46869Y-24174D01*
X46585Y-24055D01*
X46277Y-24055D01*
X45992Y-24173D01*
X45930Y-24235D01*
X45869Y-24174D01*
X45585Y-24055D01*
X45277Y-24055D01*
X44992Y-24173D01*
X44774Y-24391D01*
X44655Y-24675D01*
X44655Y-24983D01*
X44773Y-25268D01*
X44991Y-25486D01*
X45036Y-25505D01*
X43754Y-25505D01*
X43942Y-25317D01*
X44060Y-25034D01*
X44060Y-24728D01*
X43943Y-24444D01*
X43727Y-24228D01*
X43444Y-24110D01*
X43138Y-24110D01*
X42854Y-24227D01*
X42790Y-24291D01*
X42727Y-24228D01*
X42444Y-24110D01*
X42138Y-24110D01*
X41854Y-24227D01*
X41638Y-24443D01*
X41520Y-24726D01*
X41520Y-25032D01*
X41637Y-25316D01*
X41793Y-25472D01*
X41805Y-25531D01*
X41919Y-25701D01*
X42618Y-26401D01*
X42619Y-26401D01*
X42686Y-26446D01*
X42789Y-26515D01*
X42989Y-26554D01*
X42990Y-26555D01*
X45602Y-26555D01*
X46252Y-27205D01*
X46149Y-27309D01*
X46060Y-27397D01*
X46058Y-27399D01*
X45835Y-27622D01*
X45835Y-27180D01*
X45771Y-27024D01*
X45651Y-26904D01*
X45495Y-26839D01*
X45326Y-26839D01*
X44106Y-26839D01*
X43950Y-26903D01*
X43878Y-26975D01*
X42600Y-26975D01*
X42399Y-27015D01*
X42296Y-27083D01*
X42228Y-27129D01*
X41856Y-27501D01*
X41762Y-27501D01*
X41504Y-27607D01*
X41308Y-27803D01*
X41201Y-28060D01*
X41201Y-28338D01*
X41307Y-28596D01*
X41330Y-28619D01*
X41265Y-28684D01*
X41200Y-28840D01*
X41200Y-29009D01*
X41200Y-29559D01*
X41264Y-29715D01*
X41375Y-29826D01*
X41375Y-30000D01*
X41415Y-30201D01*
X41529Y-30371D01*
X41928Y-30771D01*
X41929Y-30771D01*
X42099Y-30885D01*
X42300Y-30925D01*
X44052Y-30925D01*
X44049Y-30929D01*
X44033Y-30951D01*
X44015Y-30967D01*
X43657Y-31401D01*
X43572Y-31401D01*
X43296Y-31514D01*
X43220Y-31590D01*
X43145Y-31515D01*
X42870Y-31401D01*
X42572Y-31401D01*
X42296Y-31514D01*
X42085Y-31725D01*
X41971Y-32000D01*
X41971Y-32298D01*
X42084Y-32574D01*
X42295Y-32785D01*
X42570Y-32899D01*
X42868Y-32899D01*
X43144Y-32786D01*
X43220Y-32710D01*
X43295Y-32785D01*
X43570Y-32899D01*
X43868Y-32899D01*
X43980Y-32852D01*
X44075Y-32947D01*
X44075Y-35930D01*
X43944Y-36061D01*
X43825Y-36345D01*
X43825Y-36653D01*
X43943Y-36938D01*
X44075Y-37070D01*
X44075Y-37200D01*
X44115Y-37401D01*
X44229Y-37571D01*
X44828Y-38171D01*
X44829Y-38171D01*
X44999Y-38285D01*
X45200Y-38325D01*
X48372Y-38325D01*
X49312Y-39264D01*
X49312Y-39817D01*
X49376Y-39973D01*
X49496Y-40093D01*
X49652Y-40158D01*
X49821Y-40158D01*
X50607Y-40158D01*
X50763Y-40094D01*
X50777Y-40079D01*
X50967Y-40158D01*
X51292Y-40158D01*
X51593Y-40034D01*
X51630Y-39997D01*
X51666Y-40033D01*
X51967Y-40158D01*
X52292Y-40158D01*
X52593Y-40034D01*
X52630Y-39997D01*
X52666Y-40033D01*
X52967Y-40158D01*
X53292Y-40158D01*
X53593Y-40034D01*
X53630Y-39997D01*
X53666Y-40033D01*
X53682Y-40040D01*
X53715Y-40201D01*
X53829Y-40371D01*
X54398Y-40941D01*
X54082Y-40941D01*
X53926Y-41005D01*
X53889Y-41041D01*
X53651Y-40942D01*
X53350Y-40942D01*
X53071Y-41057D01*
X53000Y-41128D01*
X52930Y-41058D01*
X52651Y-40942D01*
X52350Y-40942D01*
X52071Y-41057D01*
X51858Y-41270D01*
X51742Y-41549D01*
X51742Y-41850D01*
X51857Y-42129D01*
X52070Y-42342D01*
X52349Y-42458D01*
X52650Y-42458D01*
X52929Y-42343D01*
X53000Y-42272D01*
X53070Y-42342D01*
X53349Y-42458D01*
X53650Y-42458D01*
X53890Y-42359D01*
X53925Y-42394D01*
X54081Y-42459D01*
X54250Y-42459D01*
X54918Y-42459D01*
X55074Y-42395D01*
X55194Y-42275D01*
X55259Y-42119D01*
X55259Y-41950D01*
X55259Y-41282D01*
X55235Y-41225D01*
X57600Y-41225D01*
X57801Y-41185D01*
X57971Y-41071D01*
X58625Y-40417D01*
X58625Y-40453D01*
X58743Y-40738D01*
X58961Y-40956D01*
X59245Y-41075D01*
X59553Y-41075D01*
X59838Y-40957D01*
X60056Y-40739D01*
X60175Y-40455D01*
X60175Y-40147D01*
X60057Y-39862D01*
X59839Y-39644D01*
X59555Y-39525D01*
X59247Y-39525D01*
X58962Y-39643D01*
X58925Y-39680D01*
X58925Y-37058D01*
X58965Y-37075D01*
X59134Y-37075D01*
X59160Y-37075D01*
X59306Y-37478D01*
X59312Y-37488D01*
X59315Y-37501D01*
X59365Y-37577D01*
X59412Y-37653D01*
X59421Y-37660D01*
X59429Y-37671D01*
X59729Y-37971D01*
X59899Y-38085D01*
X60100Y-38125D01*
X61589Y-38125D01*
X61575Y-38200D01*
X61575Y-39646D01*
X61553Y-39624D01*
X61260Y-39502D01*
X60942Y-39502D01*
X60648Y-39623D01*
X60424Y-39847D01*
X60302Y-40140D01*
X60302Y-40458D01*
X60423Y-40752D01*
X60647Y-40976D01*
X60940Y-41098D01*
X61258Y-41098D01*
X61552Y-40977D01*
X61600Y-40928D01*
X61615Y-41001D01*
X61729Y-41171D01*
X62529Y-41971D01*
X62699Y-42085D01*
X62900Y-42125D01*
X63482Y-42125D01*
X64275Y-42917D01*
X64275Y-42964D01*
X64219Y-42941D01*
X64050Y-42941D01*
X63382Y-42941D01*
X63226Y-43005D01*
X63106Y-43125D01*
X63041Y-43281D01*
X63041Y-43450D01*
X63041Y-44118D01*
X63105Y-44274D01*
X63225Y-44394D01*
X63381Y-44459D01*
X63550Y-44459D01*
X64218Y-44459D01*
X64374Y-44395D01*
X64410Y-44358D01*
X64649Y-44458D01*
X64950Y-44458D01*
X65229Y-44343D01*
X65442Y-44130D01*
X65558Y-43851D01*
X65558Y-43550D01*
X65443Y-43271D01*
X65325Y-43153D01*
X65325Y-42700D01*
X65285Y-42499D01*
X65171Y-42329D01*
X65171Y-42328D01*
X64071Y-41229D01*
X63901Y-41115D01*
X63700Y-41075D01*
X63313Y-41075D01*
X63552Y-40977D01*
X63776Y-40753D01*
X63898Y-40460D01*
X63898Y-40142D01*
X63777Y-39848D01*
X63553Y-39624D01*
X63260Y-39502D01*
X62942Y-39502D01*
X62648Y-39623D01*
X62625Y-39646D01*
X62625Y-38417D01*
X62917Y-38125D01*
X64500Y-38125D01*
X64701Y-38085D01*
X64871Y-37971D01*
X65426Y-37417D01*
X65426Y-37416D01*
X65471Y-37348D01*
X65539Y-37246D01*
X65540Y-37246D01*
X65579Y-37046D01*
X65580Y-37045D01*
X65580Y-36849D01*
X65676Y-36753D01*
X65775Y-36515D01*
X65775Y-40086D01*
X65677Y-39848D01*
X65453Y-39624D01*
X65160Y-39502D01*
X64842Y-39502D01*
X64548Y-39623D01*
X64324Y-39847D01*
X64202Y-40140D01*
X64202Y-40458D01*
X64323Y-40752D01*
X64547Y-40976D01*
X64840Y-41098D01*
X65158Y-41098D01*
X65452Y-40977D01*
X65676Y-40753D01*
X65775Y-40515D01*
X65775Y-41900D01*
X65815Y-42101D01*
X65929Y-42271D01*
X66042Y-42384D01*
X66042Y-42550D01*
X66157Y-42829D01*
X66370Y-43042D01*
X66649Y-43158D01*
X66950Y-43158D01*
X67229Y-43043D01*
X67300Y-42972D01*
X67370Y-43042D01*
X67649Y-43158D01*
X67950Y-43158D01*
X68229Y-43043D01*
X68442Y-42830D01*
X68558Y-42551D01*
X68558Y-42250D01*
X68443Y-41971D01*
X68230Y-41758D01*
X67951Y-41642D01*
X67650Y-41642D01*
X67371Y-41757D01*
X67300Y-41828D01*
X67230Y-41758D01*
X66951Y-41642D01*
X66825Y-41642D01*
X66825Y-38734D01*
X66919Y-38963D01*
X67149Y-39193D01*
X67450Y-39318D01*
X67775Y-39318D01*
X68076Y-39194D01*
X68306Y-38964D01*
X68400Y-38737D01*
X68493Y-38963D01*
X68723Y-39193D01*
X69024Y-39318D01*
X69349Y-39318D01*
X69650Y-39194D01*
X69880Y-38964D01*
X70005Y-38663D01*
X70005Y-42034D01*
X69750Y-42289D01*
X69505Y-42879D01*
X69504Y-43518D01*
X69748Y-44108D01*
X70199Y-44560D01*
X70789Y-44805D01*
X71428Y-44806D01*
X72018Y-44562D01*
X72470Y-44111D01*
X72715Y-43521D01*
X72716Y-42882D01*
X72716Y-45500D01*
X48675Y-45500D01*
X48675Y-40755D01*
X48675Y-40447D01*
X48557Y-40162D01*
X48425Y-40030D01*
X48425Y-40000D01*
X48385Y-39799D01*
X48271Y-39629D01*
X48271Y-39628D01*
X47671Y-39029D01*
X47501Y-38915D01*
X47300Y-38875D01*
X44900Y-38875D01*
X44699Y-38915D01*
X44596Y-38983D01*
X44528Y-39029D01*
X44329Y-39229D01*
X44215Y-39399D01*
X44175Y-39600D01*
X44175Y-39725D01*
X44166Y-39725D01*
X44010Y-39789D01*
X43890Y-39909D01*
X43825Y-40065D01*
X43825Y-40234D01*
X43825Y-40934D01*
X43889Y-41090D01*
X44009Y-41210D01*
X44165Y-41275D01*
X44334Y-41275D01*
X45034Y-41275D01*
X45190Y-41211D01*
X45310Y-41091D01*
X45375Y-40935D01*
X45375Y-40766D01*
X45375Y-40066D01*
X45317Y-39925D01*
X45805Y-39925D01*
X45762Y-39943D01*
X45544Y-40161D01*
X45425Y-40445D01*
X45425Y-40753D01*
X45543Y-41038D01*
X45761Y-41256D01*
X46045Y-41375D01*
X46353Y-41375D01*
X46638Y-41257D01*
X46856Y-41039D01*
X46975Y-40755D01*
X46975Y-40447D01*
X46857Y-40162D01*
X46639Y-39944D01*
X46593Y-39925D01*
X47082Y-39925D01*
X47281Y-40123D01*
X47244Y-40161D01*
X47125Y-40445D01*
X47125Y-40753D01*
X47243Y-41038D01*
X47461Y-41256D01*
X47745Y-41375D01*
X48053Y-41375D01*
X48338Y-41257D01*
X48556Y-41039D01*
X48675Y-40755D01*
X48675Y-45500D01*
X48258Y-45500D01*
X48258Y-43851D01*
X48258Y-43550D01*
X48143Y-43271D01*
X47930Y-43058D01*
X47651Y-42942D01*
X47350Y-42942D01*
X47109Y-43040D01*
X47075Y-43006D01*
X46919Y-42941D01*
X46750Y-42941D01*
X46082Y-42941D01*
X45926Y-43005D01*
X45806Y-43125D01*
X45741Y-43281D01*
X45741Y-43450D01*
X45741Y-44118D01*
X45805Y-44274D01*
X45925Y-44394D01*
X46081Y-44459D01*
X46250Y-44459D01*
X46918Y-44459D01*
X47074Y-44395D01*
X47110Y-44358D01*
X47349Y-44458D01*
X47650Y-44458D01*
X47929Y-44343D01*
X48142Y-44130D01*
X48258Y-43851D01*
X48258Y-45500D01*
X43675Y-45500D01*
X43675Y-40935D01*
X43675Y-40766D01*
X43675Y-40066D01*
X43675Y-36655D01*
X43675Y-36347D01*
X43557Y-36062D01*
X43339Y-35844D01*
X43055Y-35725D01*
X42747Y-35725D01*
X42462Y-35843D01*
X42244Y-36061D01*
X42125Y-36345D01*
X42125Y-36653D01*
X42243Y-36938D01*
X42461Y-37156D01*
X42745Y-37275D01*
X43053Y-37275D01*
X43338Y-37157D01*
X43556Y-36939D01*
X43675Y-36655D01*
X43675Y-40066D01*
X43611Y-39910D01*
X43491Y-39790D01*
X43335Y-39725D01*
X43166Y-39725D01*
X42466Y-39725D01*
X42310Y-39789D01*
X42190Y-39909D01*
X42125Y-40065D01*
X42125Y-40234D01*
X42125Y-40934D01*
X42189Y-41090D01*
X42309Y-41210D01*
X42465Y-41275D01*
X42634Y-41275D01*
X43334Y-41275D01*
X43490Y-41211D01*
X43610Y-41091D01*
X43675Y-40935D01*
X43675Y-45500D01*
X43106Y-45500D01*
X43106Y-42772D01*
X42862Y-42182D01*
X42411Y-41730D01*
X41821Y-41485D01*
X41182Y-41484D01*
X40592Y-41728D01*
X40140Y-42179D01*
X39895Y-42769D01*
X39894Y-43408D01*
X40138Y-43998D01*
X40589Y-44450D01*
X41179Y-44695D01*
X41818Y-44696D01*
X42408Y-44452D01*
X42860Y-44001D01*
X43105Y-43411D01*
X43106Y-42772D01*
X43106Y-45500D01*
X39000Y-45500D01*
X39000Y-22500D01*
X73400Y-22500D01*
X73400Y-45500D01*
M02*
