M48
;DRILL file {Pcbnew (2011-nov-30)-testing} date lun 18 feb 2013 23:54:55 ART
;FORMAT={2:4/ absolute / inch / suppress leading zeros}
FMAT,2
INCH,TZ
T1C0.025
T2C0.032
T3C0.040
%
G90
G05
M72
T1
X41900Y-28200
X41900Y-29200
X42290Y-24880
X42720Y-32150
X43720Y-32150
X44600Y-36500
X44600Y-40500
X46540Y-31430
X47400Y-29260
X47540Y-31430
X47900Y-40600
X49110Y-25630
X49200Y-31500
X50130Y-39340
X50200Y-31500
X54000Y-24000
X54130Y-39340
X54400Y-29400
X56000Y-24000
X56000Y-25000
X59400Y-36300
X61200Y-28700
X61200Y-30300
X61200Y-32000
X62400Y-24000
X63200Y-32000
X64800Y-43700
X66800Y-42400
X70900Y-30300
X71600Y-37000
T2
X41900Y-28200
X41900Y-29200
X42290Y-24880
X42720Y-32150
X43290Y-24880
X43720Y-32150
X45430Y-24830
X46430Y-24830
X46540Y-31430
X47400Y-29260
X47540Y-31430
X48400Y-29260
X49110Y-24630
X49110Y-25630
X49200Y-31500
X50200Y-31500
X50630Y-37340
X51130Y-39340
X51630Y-37340
X52130Y-39340
X52630Y-37340
X53130Y-39340
X53630Y-37340
X54130Y-39340
X54400Y-28400
X54400Y-29400
X54630Y-37340
X55130Y-39340
X55630Y-37340
X56130Y-39340
X56630Y-37340
X57130Y-39340
X58200Y-27100
X58200Y-28700
X58200Y-30300
X58200Y-32000
X61200Y-27100
X61200Y-28700
X61200Y-30300
X61200Y-32000
X63200Y-27100
X63200Y-28700
X63200Y-30300
X63200Y-32000
X66200Y-27100
X66200Y-28700
X66200Y-30300
X66200Y-32000
X67613Y-38500
X67900Y-27100
X67900Y-28700
X67900Y-30300
X67900Y-32000
X69187Y-38500
X70900Y-27100
X70900Y-28700
X70900Y-30300
X70900Y-32000
T3
X41500Y-43090
X42900Y-36500
X42900Y-40500
X44600Y-36500
X44600Y-40500
X46200Y-36600
X46200Y-40600
X46500Y-43700
X47500Y-43700
X47900Y-36600
X47900Y-40600
X50130Y-39340
X52400Y-34400
X52500Y-41700
X53000Y-24000
X53000Y-25000
X53400Y-34400
X53500Y-41700
X54000Y-24000
X54000Y-25000
X54400Y-34400
X54500Y-41700
X55000Y-24000
X55000Y-25000
X56000Y-24000
X56000Y-25000
X57000Y-24000
X57000Y-25000
X59400Y-36300
X59400Y-40300
X60400Y-24000
X60400Y-25000
X61100Y-36300
X61100Y-40300
X61400Y-24000
X61400Y-25000
X62400Y-24000
X62400Y-25000
X63100Y-36300
X63100Y-40300
X63800Y-43700
X64800Y-43700
X65000Y-36300
X65000Y-40300
X66800Y-42400
X67800Y-42400
X67900Y-34700
X68900Y-34700
X71110Y-43200
X71600Y-37000
X71600Y-38000
T0
M30
